<svg xmlns="http://www.w3.org/2000/svg" width="434" height="635" fill="none" id="boy-sitting-with-leg-support"><path fill="#fff" fill-rule="evenodd" d="M211.557 371.865c.575 5.982-.599 11.694-3.396 16.524l-.91 1.571 1.732.604c3.152 1.101 6.657 1.636 10.716 1.636 4.177 0 8.521-.581 12.012-1.048l2.235-.298-1.098-1.938c-.883-1.558-1.046-3.445-1.219-5.444-.047-.536-.095-1.091-.158-1.641-3.307-29.514-7.488-59.413-11.531-88.328-1.064-7.609-2.164-15.477-3.231-23.216l-3.062.117c-.823 14.326-1.622 28.893-2.395 42.981-.34 6.195-.68 12.39-1.023 18.584-1.221 15.661-.8 28.341 1.328 39.896m1.249 176.986c-4.496 0-9-.467-13.388-1.389-13.73-2.878-26.204-9.667-36.818-15.804-.542-.307-1.092-.614-1.656-.929-4.156-2.321-9.327-5.209-12.568-8.732-3.556-3.865-4.168-7.717-1.926-12.121l.355-.697-.371-.688c-2.321-4.314-2.148-9.651.42-12.979l2.159-2.796-3.549.376c-3.579.379-7.185.893-10.674 1.389-3.87.552-7.872 1.121-11.814 1.503l-1.095.106-.252 1.054c-.14.586-.313.943-1.529.943-1.055 0-2.472-.309-3.971-.635-1.862-.404-3.971-.863-6.006-.863-.895 0-1.699.085-2.461.26l-.443.102-.315.322c-.201.206-.545.334-.895.334-.265 0-.511-.073-.676-.202l-.497-.388-.631.069c-10.988 1.205-20.463 3.319-28.965 6.462l-.039.015-.184.079c-3.075 1.325-6.253 2.695-9.148 2.695-2.116 0-3.835-.719-5.409-2.262l-.444-.436-.628-.006c-6.365-.058-9.273-7.469-9.676-12.436l-.05-.625-.485-.407c-11.094-9.294-17.643-22.059-20.022-39.024-2.168-15.454-.504-31.747 1.41-45.647 4.427-36.022 9.044-68.315 20.78-98.942l.548-1.432-1.461-.524c-5.069-1.819-8.943-3.988-11.843-6.633l-.201-.184-.253-.103c-4.157-1.705-6.193-8-6.718-9.888l-.042-.152-.074-.141c-.848-1.624-1.043-3.884-.536-6.199l.054-.25-.031-.253c-.274-2.199.635-4.497 1.598-6.931.44-1.112.894-2.261 1.226-3.406 1.142-3.271 2.282-6.599 3.386-9.819 2.475-7.224 5.035-14.694 7.762-21.96l.372-.994-.821-.685c-1.403-1.169-.934-2.546 1.088-5.837.478-.778.93-1.514 1.273-2.238a151.915 151.915 0 0 1 8.26-12.762l.059-.082.047-.088c14.822-27.637 41.113-42.857 74.03-42.857l.671.001.371-.223c6.169-3.704 10.573-10.059 13.464-19.429l.092-.298-.036-.311c-.099-.863-.207-1.995-.17-3.094.094-2.782 1.186-5.265 2.997-6.812 3.434-2.935 8.648-3.181 13.694-3.181l.725.001c6.452.019 11.007 1.137 14.335 3.52 3.866 2.769 6.003 7.239 6.533 13.665.158 1.923.153 3.915.148 5.841l-.001.538.065.213a37.88 37.88 0 0 0 1.614 4.363l.625 1.406 1.421-.634c.919-.41 2.084-.621 3.562-.645.426-.009.842-.014 1.261-.014 3.433 0 7.104.313 10.656.615 2.675.228 5.442.464 8.12.569l.037.001.536-.002c6.509 0 11.228 1.022 14.85 3.217 3.899 2.362 6.703 6.154 8.824 11.933 11.373 33.125 16.048 68.804 20.172 100.283 2.34 16.461 3.051 33.337 3.739 49.657.727 17.226 1.478 35.038 4.137 52.45l.211 1.377 1.412-.091c6.214-.401 12.93-1.263 20.041-2.176 10.803-1.388 21.973-2.822 32.772-2.822 15.099 0 26.547 2.966 34.994 9.067 5.888 5.539 8.934 13.04 8.809 21.696-.177 12.23-6.657 25.752-16.507 34.447l-.037.034c-12.452 11.744-35.18 21.93-67.554 30.275-29.769 7.674-60.562 11.844-76.269 13.647l-3.887.446 3.155 2.278a118.21 118.21 0 0 0 3.563 2.481l.722.482.792-.362c2.257-1.033 3.69-1.25 4.496-1.25.715 0 1.577.155 1.624.894.031.483-.313 1.201-1.041 1.292l-3.864.481 3.155 2.247c2.107 1.5 5.251 3.308 8.892 5.403 11.911 6.851 29.911 17.206 26.815 26.299l-.203.597.287.563c.832 1.628.903 3.139.217 4.62-1.47 3.173-6.067 5.582-9.972 6.561l-.066.017-.066.023a64.36 64.36 0 0 1-21.195 3.561" clip-rule="evenodd"></path><path fill="#000" fill-rule="evenodd" d="M199.735 490.437c.47-.477.667-1.102.229-1.836-1.696-2.162-5.212-.684-7.4-.184a64.123 64.123 0 0 1-2.436-2.101c.274-1.7-1.773-2.831-2.614-4.142-.826-.966-1.603-2.063-2.593-2.873-2.413-1.879-5.758-.608-8.559-.694-2.157-2.739-4.378-5.392-6.43-8.222 2.365-3.968 2.532-8.617 1.747-13.038 36.274-13.742 67.672-39.76 106.904-45.774 1.349-.224 2.105-1.861 1.769-3.062-2.737-6.52-42.063 10.304-47.941 13.351-17.338 8.289-33.579 18.62-50.429 27.736-3.514 1.864-7.379 2.865-11.221 3.834-5.904-19.347-15.892-37.081-23.55-55.734.497-.86.92-1.763 1.28-2.691-.254 10.258 9.738 10.114 11.118.383-.569 5.073 3.273 15.936 8.818 8.808 1.3-1.791 1.762-4.084 1.982-6.397.285 1.6.608 3.191.967 4.778 1.423 3.143 5.309-.679 6.212-2.318a3.086 3.086 0 0 0 1.365-.621c9.805 1.36 21.354 1.282 28.549-6.447 12.203 4.674 25.709.487 38.051-1.38 25.115-2.883 50.329-7.277 75.669-6.941 11.314.656 24.661 2.479 31.817 12.117 9.179 13.893 3.991 32.657-6.135 44.684-24.358 30.79-107.968 44.178-147.169 48.764m.685 11.091c.443-.119.89-.227 1.334-.33 7.109 5.909 40.593 21.255 38.046 30.422-.9 1.14-3.055 1.399-4.417 1.768a87.833 87.833 0 0 1-7.186 1.634c-7.818 1.42-15.915 1.668-23.722.048-2.873-.436-5.466-1.659-8.082-2.842-8.453-3.713-17.764-7.815-26.176-11.497-10.688-4.23-29.434-12.567-21.724-26.634 7.305 8.203 16.576 7.486 21.247-2.709 1.61-3.095 3.016-7.267 6.799-8.518 1.996-1.347 4.547-1.627 6.215-.126.12-.187.228-.449.287-.681 1.88 2.671 3.501 5.484 5.704 7.925-.757.041-8.631 5.859-6.307 5.862 2.796-1.438 5.573-2.636 8.592-3.41 2.188 2.197 4.594 4.24 7.087 6.129-2.421 1.597-4.596 3.552-6.346 5.673-.151.187.034.429.259.328 2.717-1.208 5.51-2.27 8.39-3.042m36.041 39.636c-27.195 12.196-55.985-1.384-79.176-15.863-5.352-2.984-12.393-7.214-11.31-14.238 3.942 5.758 10.441 9.037 16.679 11.88 10.479 4.729 21.028 9.307 31.534 13.979.992 3.286 5.737 3.412 8.605 4.141 12.765 2.472 26.486 1.244 38.5-3.685-.695 2.056-2.97 2.999-4.832 3.786M127.96 493.676c-.671.086-1.344.164-2.015.24.069-.888-.467-1.776-1.329-2.051.387-1.882.531-3.827.323-5.736 1.124 2.898 4.75 2.018 7.053 1.183a255.067 255.067 0 0 0 9.813-2.878c1.283 2.379 2.642 4.722 4.312 6.876-6.079.54-12.101 1.612-18.157 2.366m-2.676-9.116c-.161.341-.392.701-.397 1.11a18.217 18.217 0 0 0-.972-4.137l1.369 3.027m-3.836-7.56c-2.991-3.891-8.518-7.072-13.627-5.988-.328.071-.336.598 0 .664 6.863.931 12.891 6.366 13.129 13.394.541 3.18-1.675 6.303-.928 9.355l-.444.028a4.753 4.753 0 0 1-.167.545c.742.123.96 1.314.085 1.526a8.683 8.683 0 0 1-1.611.219c-2.798-.754-5.75-.928-8.425-2.043-2.647-1.168-1.985-4.449-2.919-6.722-.685-2.621-1.472-5.231-2.465-7.746-.071-.202-.346-.157-.369.048-.7 5.017-.677 10.119-.508 15.177-.918.093-1.831.197-2.747.31.059-1.413-4.186-18.622-6.422-14.206 1.126 4.856 1.262 9.928 1.382 14.925-6.64 1.092-13.183 2.719-19.549 4.934-4.485 1.357-9.82 5.372-14.175 1.742-3.373-2.784-4.51-7.642-4.191-11.776 4.386-24.46 39.026-27.317 59.475-25.509a1050.42 1050.42 0 0 0 5.892 13.308 16.51 16.51 0 0 0-1.416-2.185m-69.744 13.909c-.375-5.554.561-12.468 4.683-16.607 9.433-7.963 22.642-10.468 34.43-13.351a128.686 128.686 0 0 1 16.646-2.159c1.982-.156 4.501.292 5.901-1.327.721 1.705 1.452 3.408 2.183 5.111-23.468-3.07-72.43 7.594-58.719 39.691-2.903-3.14-4.827-6.964-5.124-11.358m116.592-18.36c1.08 2.694 2.401 5.259 4.127 7.605-1.962 1.281-3.563 3.175-4.691 5.211-7.233 18.892-14.968 8.773-24.579-1.365 8.133-3.064 18.906-5.36 25.143-11.451m-120.39 14.516C29.1 468.516 25.45 437.614 32.398 413.324c.618-9.007 3.773-17.591 6.6-26.119 9-25.869 20.836-50.757 35.032-74.255 17.613 4.83 35.194 9.789 52.848 14.46 2.431.528 4.865 1.569 7.361 1.721.892.567 1.788 1.193 2.716 1.742-1.352 6.612-.105 13.361.21 20.013.287 5.236-.279 10.364-.974 15.545-.777 7.537-3.976 32.051 2.434 36.539 2.172 1.047 4.114-2.053 5.05-1.201a10.332 10.332 0 0 0 2.272-2.194c2.475 7.991 6.52 15.404 9.018 23.402 3.324 11.754 14.24 30.78 11.816 41.992-1.875 6.924-10.077 8.417-15.997 10.68-6.84 2.376-13.757 4.557-20.787 6.328-3.432-7.272-6.712-14.612-9.931-21.98-14.712-33.993-27.741-68.696-39.385-103.812-.218-.779-2.896-9.224-3.386-6.868-.04-.242-.346-.868-.462-.333 1.975 8.246 3.978 16.489 6.146 24.689-5.325-.744-11.05-1.034-15.922 1.571-.252.134-.067.464.181.424 5.771-.999 11.337.888 16.88 2.242 7.784 26.455 17.828 52.238 28.459 77.699-3.288-1.047-7.105.111-10.537.194-10.808 1.115-21.493 3.476-31.703 7.148-12.834 4.155-21.909 9.572-22.43 24.114M37.553 294.017c-3.16-3.398-5.642-7.736-5.163-12.339 1.898-2.528 2.527-5.824 3.632-8.746 4.322-12.223 8.333-24.54 13.037-36.631 10.005 3.072 19.849 6.757 29.134 11.597a147.68 147.68 0 0 1 5.068 2.709c1.749.979 3.657 2.679 5.755 2.192-2.293 3.241-7.014 6.614-7.812 10.359-.172 1.186.67 2.286 1.962 2.021 20.234 14.35 41.129 28.397 60.255 44.38 14.322 11.321 25.317 20.502 30.229 38.87 3.311 11.898 3.321 24.333 2.834 36.567-.095 2.378-.098 4.812-.29 7.206.287 1.791-.259 5.436-2.275 5.501a2.7 2.7 0 0 0 .418 1.188 5.914 5.914 0 0 1-.2.25c-.1-.489-.198-.976-.29-1.466-1.57-6.941-1.78-14.995-1.518-22.385.11-2.119-3.145-2.069-3.327 0l-1.469 16.758c-.588 3.62.338 8.354-2.56 11.106-2.947-2.719-1.972-8.082-1.829-11.59.231-5.723.48-11.444.693-17.167.066-1.814-2.942-2.281-3.284-.437a526.577 526.577 0 0 1-3.139 15.725c-.679 2.02-1.146 11.085-4.542 9.511-2.023-1.379-.564-9.469-.831-12.147.126-5.302.2-10.597.59-15.886.159-2.134-3.321-2.588-3.798-.504a339.836 339.836 0 0 0-2.188 10.139c-1.475 5.724-.939 13.482-6.263 17.286-2.086-14.867.915-29.63 1.336-44.444-.252-4.8-1.077-9.552-1.806-14.294-.805-5.244-1.275-10.952.611-16.009-.516-2.265-2.542 3.861-2.732 4.371-1.526-3.002-5.242-3.234-8.182-4.169-6.532-2.112-13.224-3.703-19.833-5.58-17.528-4.86-35.077-9.645-52.63-14.42-7.012-1.937-14.394-4.23-19.593-9.522m175.523 79.078c-2.419-13.088-2.352-26.351-1.319-39.583 1.136-20.522 2.239-41.049 3.419-61.568 5.122 37.139 10.583 74.235 14.758 111.493.297 2.593.251 5.337 1.562 7.65-7.243.969-14.963 1.945-22.006-.514 3.091-5.335 4.181-11.409 3.586-17.478m36.597-92.189c5.476 35.199 2.352 71.016 7.664 106.175-7.369.825-14.681 2.046-21.973 3.388.798-4.344-.716-8.828-.977-13.202-3.96-31.197-8.333-62.373-14.127-93.297-1.421-7.4-2.857-14.771-4.504-22.131.249-4.457.467-8.914.611-13.373 8.04-5.047 17.107-8.314 26.484-9.961 2.533 14.095 5.065 28.18 6.822 42.401m-63.389-110.61a35.192 35.192 0 0 1-.918-1.675c.99.038 1.954.073 2.929.234-.044 1.567.044 3.146.061 4.725-.487-1.155-1.441-2.21-2.072-3.284m165.384 220.582c-23.388-16.981-61.804-6.162-88.899-4.417-5.165-33.817-3.057-68.187-7.871-102.059-4.435-33.84-9.11-68.151-20.247-100.574-4.596-12.536-12.547-16.259-25.637-16.158-6.643-.26-13.668-1.322-20.124-1.171-1.416.023-2.895.21-4.173.78-1.795-4.041-2.77-8.379-3.262-12.75a.251.251 0 0 0-.49-.063c-1.518 3.806-1.68 7.96-.854 11.945.597 2.856 4.155 14.093 8.287 9.696.328 9.22-1.701 20.23-10.747 25.014-15.807 6.881-37.656.616-46.813-13.988-1.769-2.919-3.295-6.024-5.255-8.826 13.653-3.859 21.316-20.192 18.1-32.629-1.988 9.673-5.612 20.481-14.637 25.899-32.866-.073-60.191 14.872-75.631 43.657a153.162 153.162 0 0 0-8.374 12.942c-1.378 2.956-5.412 7.068-1.988 9.923-3.955 10.538-7.464 21.223-11.172 31.845-1.019 3.539-3.348 7.251-2.883 10.972-.503 2.293-.48 5.004.672 7.209 1.092 3.93 3.544 9.216 7.61 10.884 3.45 3.145 7.812 5.312 12.362 6.944-12.134 31.66-16.753 65.805-20.865 99.257-4.03 29.264-6.11 64.862 19.139 86.012.49 6.051 4.085 13.762 11.195 13.827 4.924 4.828 10.926 2.179 16.407-.181 9.252-3.421 18.954-5.317 28.595-6.375 1.034.808 2.716.674 3.637-.267 5.84-1.344 13.935 4.099 15.114-.832 7.531-.729 14.979-2.096 22.502-2.893-3.171 4.106-2.942 10.162-.554 14.599-6.082 11.944 8.084 18.86 16.745 23.76 11.693 6.76 23.904 13.175 37.277 15.977 11.757 2.469 24.073 1.72 35.417-2.224 5.961-1.496 14.286-6.407 10.749-13.326 4.484-13.167-27.002-26.81-36.263-33.404 3.785-.471 3.924-8.316-5.922-3.808a119.041 119.041 0 0 1-3.517-2.449c39.826-4.571 115.886-17.145 144.709-44.326 15.835-13.976 24.971-42.246 7.661-58.422" clip-rule="evenodd"></path><path fill="#fff" fill-rule="evenodd" d="M156.509 65.773c38.007-1.866 55.159 24.856 56.268 36.791.77 8.286-4.132 17.835-4.132 25.239 0 3.779 4.633 11.892 2.476 17.399-4.801 12.26-14.967 25.865-27.921 25.865-12.954 0-29.813 3.578-44.127-16.888-1.343-1.92-18.331-12.834-19.981-23.205-4.111-25.832 10.297-63.87 37.417-65.2Z" clip-rule="evenodd"></path><path fill="#000" fill-rule="evenodd" d="M154.717 49.143c1.359-1.553 3.653-2.174 5.692-2.053 2.961.175 5.537 2 8.483 2.135 3.089.143 6.071-.926 9.168-.43 1.898.305 3.779 1.184 4.995 2.666 4.213-1.204 8.787.391 11.47 3.874 3.31-.513 6.911 1.676 7.924 4.86 4.205.136 8.174 3.508 8.643 7.735 1.681.444 3.14 1.6 4.035 3.13 1.041 1.773 1.214 3.806 1.026 5.805 1.978 1.009 2.984 3.177 3.247 5.47 1.808 1.348 2.593 3.77 2.224 6.055 1.384.78 2.099 2.592 2.092 4.21-.008 1.51-.409 2.847.155 4.304.503 1.298.683 2.38.407 3.739l-.028.132c-.049.222-.09.434-.127.644.374.328.691.739.929 1.217.867 1.748.738 3.742.076 5.514.29 1.129.253 2.321-.175 3.406a6.157 6.157 0 0 1 1.099 4.035 6.57 6.57 0 0 1-2.029 4.202c.303 2.244-.61 4.669-2.263 6.249a5.932 5.932 0 0 1-.703 4.025 5.562 5.562 0 0 1-2.046 2.055 6.598 6.598 0 0 1-.324 2.283 7.313 7.313 0 0 1-1.707 2.839c.461 2.944-1.305 6.211-4.412 7.037-.261.069-.51.101-.748.106a32.122 32.122 0 0 1-2.027 8.276c-2.653 6.753-7.477 12.658-13.769 16.341-3.112 1.821-6.607 3.068-10.176 3.588-2.567.376-5.037.283-7.615.028-3.235-.323-6.485-.806-9.629-1.638l-.506-.134c-1.304-.349-2.678-.751-3.807-1.453-1.264-.786-1.921-1.998-2.212-3.426-.162-.794.342-1.648 1.213-1.665h.056c.19.004.379-.003.571-.015l.144-.01h.007c.01-.002.015-.002.025-.002.085-.013.168-.038.251-.05.958-.161 1.796-.002 2.696.297l.112.038c1.515.521 3.017 1.004 4.582 1.362a59.33 59.33 0 0 0 4.897.892l.163.02.05.007.025.003c.005 0 .01 0 .015.002l.484.06c.382.045.763.085 1.144.126.702.07 1.404.125 2.106.165 12.119.681 22.298-8.847 25.369-20.27 1.114-4.134 1.187-8.258.858-12.385a2.932 2.932 0 0 1-.165-.999c0-.19.01-.378.022-.568-.408-3.992-1.118-7.986-1.562-11.992-.519-4.68-.808-9.387-.702-14.098.052-2.326.301-4.629.627-6.933l.117-.827a8.084 8.084 0 0 1-3.933-1.995c-2.367 1.365-5.43 1.486-7.766.044-2.618 1.64-6.275 1.789-8.911.186-1.594 1.136-3.601 1.626-5.572 1.194a6.475 6.475 0 0 1-2.523-1.194 7.214 7.214 0 0 1-1.627.104l-.112.063c-1.252.658-2.638 1.092-4.064 1.043a9.619 9.619 0 0 1-3.152-.637c-1.076.648-2.254 1.091-3.513 1.25-1.84.231-3.826-.175-5.356-1.217-2.796 1.59-6.235 1.835-9.254.767a8.489 8.489 0 0 1-2.475 2.641c.18.642.237 1.326.175 1.984-.101 1.083-.373 2.053-.818 2.925.469.974.61 2.169.348 3.369-.374 1.711-1.371 3.2-2.662 4.359a8.184 8.184 0 0 1-4.055 6.714 3.335 3.335 0 0 1-.369.184 1.797 1.797 0 0 1-.384.385c-1.552 1.433-4.008 1.319-5.954.51-.037.001-.075.005-.113.005-.695.018-1.168-.253-1.45-.651a6.6 6.6 0 0 0-.847.098 11.795 11.795 0 0 0-3.102 1.044c-2.427 1.247-3.551 3.451-3.887 6.1-.366 2.889.467 5.834 2.706 7.79 1.088.951 2.48 1.547 3.894 1.798 1.562.278 3.232-.406 4.386.934.231.265.389.636.263.994-.391 1.117-1.035 1.545-2.043 1.7 1.456 1.725 2.951 3.393 4.606 4.943 1.79 1.68 3.641 3.308 5.256 5.161 1.708 1.96 3.25 4.039 4.32 6.417.612 1.368 1.104 2.777 1.633 4.177l.095.244c.59 1.487 1.375 2.921.467 4.474-.361.611-1.179 1.201-1.931 1.104-2.119-.271-2.829-1.7-3.481-3.563-.491-1.408-.867-2.855-1.396-4.25a16.394 16.394 0 0 0-.32-.768c-1.222.34-2.565.07-3.656-.625a8.867 8.867 0 0 1-3.702.751c-1.669-.029-3.194-.492-4.505-1.328-.104-.027-.209-.054-.313-.083-1.994.762-4.33.626-6.135-.61a6.47 6.47 0 0 1-2.423-3.059c-1.511-.029-3.006-.563-4.088-1.634a6.11 6.11 0 0 1-1.748-3.567c-1.3-.258-2.519-.885-3.476-1.943-.798-.883-1.283-2.008-1.447-3.176-1.584-.451-3.012-1.483-3.792-2.923a5.54 5.54 0 0 1-.476-4.117l-.092-.132c-1.632-.853-2.877-2.249-3.005-4.243a4.943 4.943 0 0 1 .18-1.672 5.023 5.023 0 0 1 .137-1.783c-2.194-2.13-2.989-5.553-1.798-8.383-2.144-2.304-2.71-5.947-1.138-8.681-1.078-1.302-1.632-2.963-1.54-4.735.116-2.214 1.131-4.147 2.347-5.937-.902-.997-1.384-2.387-1.348-3.729.05-1.945 1.085-3.62 2.382-5.008-1.131-3.425.132-7.141 2.908-9.31-.561-.924-.769-2.068-.586-3.227.321-2.026 1.843-3.406 3.485-4.498-.343-1.116-.253-2.32.294-3.475.729-1.54 2.106-2.517 3.543-3.343.371-3.415 4.192-6.333 7.397-4.57-.795-2.541 1.495-5.286 4.128-5.576 1.289-3.901 5.735-6.36 9.732-5.391 2.043-2.79 5.847-3.864 9.077-2.667 3.551-2.717 7.957-3.12 12.112-1.74Zm-25.294 76.6c2.495-.135 4.366 1.898 5.68 3.758 1.233 1.746-1.931 3.588-2.854 1.665-.331-.686-.707-1.412-1.211-2.013-.085.119-.16.241-.234.367l-.075.126c-.055.093-.113.188-.16.286.005.017-.07.248-.073.258-.206.623-.654 1.024-1.266 1.239-.79.276-1.537-.318-1.791-1.014-.403-1.112.534-2.081 1.51-2.521-.958-.156-1.901.17-2.593.906-.095.103-.256.02-.261-.108-.08-1.745 1.748-2.864 3.328-2.949Z" clip-rule="evenodd"></path><path fill="#000" fill-rule="evenodd" d="M190.273 151.782c-1.847.535-3.83.582-5.713.031-1.708-.501-3.462-1.602-4.719-3.06-1.116-1.294-1.839-2.868-1.811-4.547a.737.737 0 0 1 .178-.476.828.828 0 0 1 .442-.266.818.818 0 0 1 .518.045.685.685 0 0 1 .341.335c.193.254.386.503.579.746 1.553 1.915 3.057 3.346 5.393 3.86a6.583 6.583 0 0 0 3.694-.27c1.243-.455 2.367-1.255 3.247-2.279.398-.463.868-.651 1.327-.655.521-.003 1.035.238 1.423.624.381.38.636.896.659 1.435.021.474-.134.968-.545 1.409a11.098 11.098 0 0 1-5.013 3.068Zm-.057-23.986c1.894 1.149 4.779 3.829 2.742 6.679-2.398 2.512-5.85-.368-7.551-1.671-1.578-1.01-3.35 1.587-1.887 2.766 12.294 9.088 17.282-7.473 7.654-9.125-1.06-.182-1.454.995-.958 1.351Zm-17.713-5.057c-.609-.389-1.325-.522-2.118-.162-.62.282-1.708 1.22-2.464 2.454-.518.844-.885 1.835-.809 2.866a.647.647 0 0 1-.211.547.823.823 0 0 1-.457.203c-.159.02-.337.002-.482-.044-.275-.085-.421-.264-.476-.409-.53-1.406-.301-2.974.292-4.389.802-1.909 2.257-3.508 3.211-4.024 1.632-.883 3.557-.923 5.191-.024 1.391.765 2.261 2.001 3.126 3.26.184.268.367.534.555.795.378.523.416 1.042.27 1.487-.163.493-.576.909-1.093 1.127-.478.201-1.033.229-1.524.023-.415-.175-.795-.516-1.036-1.093-.406-.973-1.081-2.047-1.975-2.617Zm30.909 2.164c-.417.217-.743.283-1.205.144a1.7 1.7 0 0 1-.706-.421 1.406 1.406 0 0 1-.393-.709c-.135-.667-.5-1.291-1.021-1.698a2.05 2.05 0 0 0-1.629-.428c-.672.112-1.313.543-1.754 1.05-.147.17-.263.363-.379.554-.217.359-.428.692-.728.955a.712.712 0 0 1-.451.169.696.696 0 0 1-.201-.031c-.669-.671-.797-1.179-.776-1.684.023-.529.232-1.065.569-1.564.792-1.173 2.295-2.134 3.31-2.352 1.389-.298 2.769.06 3.875.835 1.139.797 1.982 2.035 2.245 3.43a1.83 1.83 0 0 1-.092 1.013 1.411 1.411 0 0 1-.664.737Zm-27.845-14.664c-.834.812-1.821.937-2.819 1.049-.555.063-.998.113-1.434.211-1.197.27-2.381.677-3.461 1.263-1.129.612-2.36 1.35-3.245 2.296-.21.225-.409.461-.608.698-.181.215-.355.423-.539.624-.212.23-.412.471-.612.711-.123.203-.147.253-.172.305a7.115 7.115 0 0 1-.131.259 5.223 5.223 0 0 1-.231.397c-.139.233-.213.297-.278.326a.584.584 0 0 1-.306.058.513.513 0 0 1-.265-.129c-.428-.361-.554-.953-.541-1.583.019-.954.372-2.011.697-2.661.756-1.51 1.804-3.08 3.065-4.206 1.438-1.287 3.012-2.261 4.819-2.932 1.123-.417 2.424-.8 3.648-.751.881.035 1.721.296 2.416.949.426.401.631.971.631 1.541 0 .581-.213 1.165-.634 1.575Zm29.541 7.428a.456.456 0 0 1-.208.183.482.482 0 0 1-.658-.326c-.554-2.428-1.629-4.234-3.923-5.399-1.128-.573-2.426-.937-3.655-1.227-.357-.085-.734-.139-1.114-.195-1.19-.173-2.389-.372-3.166-1.333-.467-.579-.664-1.319-.553-1.996a2.123 2.123 0 0 1 1.156-1.572c1.688-.872 3.786-.017 5.491.712l.372.158c1.667.703 3.188 1.63 4.438 2.957.992 1.052 1.911 2.608 2.281 4.209.308 1.331.235 2.691-.461 3.829Z" clip-rule="evenodd"></path></svg>