<svg xmlns="http://www.w3.org/2000/svg" width="391" height="780" fill="none" id="disabled-girl"><path fill="#fff" fill-rule="evenodd" d="M90.76 292.697c7.83 17.377 17.51 32.74 28.973 48.084-.804-36.255-1.496-72.704-2.681-109.292-7.259 14.138-14.994 26.932-25.32 40.968-8.094 8.636-4.32 12.22-.971 20.24ZM65.094 716.854c-.907-1.282-.37-2.911.885-3.743-2.672-5.751 5.38-10.191 9.343-14.52 9.007-9.755 23.198-23.739 24.461-36.057 4.296-27.945 6.751-55.989 13.63-83.608 4.087-17.542 15.433-31.617 20.503-48.849 8.817-45.54-2.573-91.209-.603-137.203-24.849-2.434-21.631.66-18.969-19.973a79.056 79.056 0 0 1-4.798-3.603c-3.967 2.113-8.65 7.293-13.018 7.02-1.383-.323-2.38-2.054-3.328-3.54a846.347 846.347 0 0 1-19.92-32.966c-35.305-55.572-27.32-68.156 5.612-121.427 13.868-20.573 30.903-50.511 57.324-52.589 3.189.003 6.552-.167 9.3-2.169.019-3.189 1.651-4.218 5.792-4.801 2.332-.239 4.161-1.597 6.438-1.043 1.624-5.412 1.298-9.765 3.06-15.12 6.036-9.14 25.619-4.58 32.79-1.714 8.91 3.093.434 16.937 6.25 23.259 1.268.707 2.587 1.046 4.277 1.045 7.205-1.601 10.716 7.035 14.122 12.732 9.749 1.2 17.055 2.644 21.539 6.153 4.114 3.1 7.137 8.085 11.157 18.397 8.419 18.389 13.938 36.652 16.377 54.27 2.121 11.939 8.017 22.271 12.749 33.115 11.617 28.233 16.632 46.934 13.851 71.784-2.949-.527-5.923-1.598-9.028-1.997l-1.255 2.964a.334.334 0 0 1-.117-.145c-3.643 24.874 6.35 75.522-26.254 68.858-2.877 27.372-12.052 51.706-23.093 74.595-4.465 8.611-8.955 17.711-8.88 27.823l1.68.037c.286.007.378.065.379.065.32.078-.052 2.57-.41 3.979-5.275 18.602-9.836 37.203-13.931 56.029-.865 2.537-1.238 9.367-3.239 10.525.087.932-2.672 2.76-2.885 2.701.481 3.592-1.261 5.2-1.202 8.847-.01-.087 2.447.041 2.34-.033 1.466 0 3.128 3.108 3.148 5.214.134 2.538-2.014 4.923-2.765 7.413-1.165 5.463-.983 11-1.501 16.498 4.889 1.107 3.792 6.295-.495 6.55 0 0-.781 7.249-.627 10.862 2.941.352 4.248 2.969 5.219 4.999 3.618.04 7.003 1.684 10.362 3.396 7.83 3.83 15.52 7.842 22.495 11.906 6.153 4.084 19.566 8.575 12.602 17.165.106.222-1.494 4.208-3.653 3.845-10.649 1.033-51.143-7.746-60.512-9.693-3.179-.755-17.093-2.564-11.315-7.252-2.153-6.004-2.248-17.396 4.247-18.787.631-5.641 5.388-7.621 10.132-5.534-.03-4.057.223-7.57.266-11.63-2.284-.3-4.812-1.146-5.472-2.875-.626-.954-.383-4.203 1.968-4.227.069-.005 1.768.077 1.836.075-.272-6.568.302-12.142-.684-18.721-.528-2.184-2.256-2.54-3.387-3.664-1.062-3.268 2.203-5.908 4.997-6.458.711-3.322-.791-6.841 0-10.102-1.822-.06-3.244-.153-4.427-1.257-.514-.503-1.355-.35-2.008-.395-.633-6.86-4.92-12.718-5.871-19.316-1.339-7.811 1.185-15.962 2.09-23.922.732-6.62-.435-13.395-1.019-19.897-24.005 38.245-56.421 75.101-62.224 121.657-.618 3.584-.993 7.592 2.318 11.102l.142.041c.841 1.687 1.37 4.902 1.974 6.642 3.126 2.466.257 7.2-2.001 9.334-.685.779-1.269 1.683-1.895 2.5-11.797 14.065-13.131 29.956-35.776 28.884-5.567-.348-18.594-.171-21.093-3.451Z" clip-rule="evenodd"></path><path fill="#000" fill-rule="evenodd" d="M159.873 144.818c1.912-1.293-.81 9.932-.815 11.012-.467 2.337-1.296 5.131-3.294 6.648a336.576 336.576 0 0 0 3.363 21.732l.803.105c11.903 1.575 23.884 3.741 35.987 2.613 6.522.052 10.835-4.405 13.468-9.931l-.544-1.945c-8.275-5.074-14.55-15.346-10.818-25.05.243-.63 1.252-.374 1.031.284-1.566 4.38-.908 9.315 1.316 13.335 1.389.737 2.869.687 4.358.639 7.183-1.049 11.305 7.095 14.399 12.169l2.706.399c10.353 1.537 20.338 3.355 25.451 13.947l.467.991c7.232 15.377 13.991 31.189 17.931 47.757 1.961 8.72 2.671 17.705 5.549 26.209 5.976 15.791 14.396 30.631 18.962 46.98 2.833 5.898 10.806 50.302 2.94 50.639a70.754 70.754 0 0 0-8.621-2.017c.449.342.613.923.527 1.515-1.016 7.117-1.092 14.327-1.087 21.504.416 17.228.358 53.65-25.34 49.011-2.106 21.068-9.301 41.452-17.297 60.957-4.752 12.571-13.967 24.039-14.43 37.848 3.183.048 1.951 4.091 1.558 6.041-1.07 4.774-2.463 9.472-3.873 14.157-4.969 16.793-7.933 34.149-12.188 51.135-.23.817-.618 1.375-1.111 1.751-.083 1.763-2.761 2.786-4.271 2.193.213 2.14.154 4.303.184 6.449l.006.403.464-.005c2.016-.519 4.054 2.74 4.623 4.415 1.914 4.683-2.525 8.119-2.854 12.576-.302 4.237-.701 8.434-.884 12.682 5.538 2.159 3.083 9.381-2.336 9.308.253 2.634.287 5.291.398 7.928 2.36.618 4.126 2.604 5.287 4.676 4.767.322 9.117 3.139 13.364 5.131a328.525 328.525 0 0 1 19.362 10.36c6.168 4.106 19.899 8.755 13.898 18.243 1.511 1.3.455 3.849-.921 4.913l-.048.036c-1.368 1.068-3.178 1.068-4.859.893-19.532.488-40.114-5.568-59.536-9.523l-1.959-.35c-4.096-.74-8.257-1.606-11.89-3.594-1.597-1.301-1.989-4.471-.353-5.75-1.677-6.056-.165-16.693 6.469-19.034.789-4.495 4.424-7.711 9.053-6.345.023-2.875.257-5.718.309-8.594-2.294-.431-4.41-1.322-5.517-3.498-1.217-2.166.103-5.804 2.867-5.683.093-4.482-.161-8.887-.198-13.361l-.003-.269c-.015-1.449.043-3.047-.571-4.376-.632-1.373-2.313-1.507-3.059-2.811-1.636-3.504 1.639-7.617 5.013-8.559.423-2.346.205-4.831.63-7.2-1.798-.104-3.33-.521-4.631-1.54-.901-.138-2.492.263-2.594-1.029-.366-5.269-3.028-9.964-4.704-14.877-3.463-9.563-.321-19.548.883-29.219.568-4.934-.031-9.888-.537-14.829-22.848 35.731-52.152 70.284-58.923 113.392-.376 4.851-2.36 8.845 1.125 13.029 1.174.348 2.167 5.818 2.62 7.207 3.572 3.299.457 9.186-2.648 11.739-1.488 2.563-3.477 4.811-5.339 7.106l-.599 1.004c-3.943 6.587-8.154 13.192-13.5 18.711-8.996 6.653-24.066 4.761-34.657 3.564l-.835-.136c-2.233-.369-4.732-.892-6.022-2.884-1.102-1.699-.955-3.903.416-5.178-1.36-3.91 1.738-7.756 4.652-10.156 11.293-10 21.029-21.759 28.613-34.793 2.906-21.079 5.891-42.15 9.122-63.182 2.608-17.398 6.581-34.825 14.969-50.434l.748-1.422c3.932-7.456 7.872-14.782 10.101-22.983 4.619-17.179 3.512-35.159 2.873-52.746-.823-27.445-2.782-54.904-2.527-82.371-5.172-.541-19.202-.213-21.41-5.52-.723-5.057.973-10.208 1.357-15.261a64.34 64.34 0 0 1-3.197-2.391 82.535 82.535 0 0 1-5.949 4.045c-4.88 3.509-8.654 4.068-11.673-1.699-8.74-13.792-17.168-27.786-25.122-42.045-7.378-13.68-16.521-27.33-18.394-43.08-2.723-28.339 30.575-73.711 47.247-96.738 10.349-12.503 23.765-25.828 40.941-26.559l.219-.009c2.259-.088 5.41.098 7.243-1.387.355-5.115 5.616-5.093 9.523-5.937.809-.619 2.038-.766 3.073-.713 1.402-4.024 1.722-8.475 3.47-12.368Zm-48.268 526.45c-4.287-2.231-9.402-2.406-13.914-.645-5.593 10.353-12.755 19.804-20.892 28.289-2.97 4.142-14.13 9.604-8.564 15.193l1.13.206c8.421 1.522 16.968 2.7 25.545 2.01 5.687-1.574 10.278-5.781 13.896-10.331 4.492-5.814 8.2-12.213 12.308-18.302 3.689-6.244 5.633-6.328 2.741-13.744-.005.144-.04.293-.114.44-1.021 2.058-4.156 1.871-5.925 1.095-2.306-1.012-3.983-3.041-6.211-4.211Zm-40.513 44.757c.085.04.173.08.261.118.064 0 .128.002.192.005l-.453-.123Zm162.588-37.268c-6.358-2.842-18.019-11.128-24.513-9.864-4.799 1.464-9.223 4.091-14.338 4.465l-.219.009c-3.65.159-10.14 1.37-11.513-2.915-1.817 3.468-2.413 7.757-2.386 11.68-.076 3.341 1.456 5.989 5.013 6.255l3.293.828c20.866 5.234 41.928 10.227 63.432 11.774 5.644-3.517 5.784-8.15-.202-11.362-6.044-3.859-12.264-7.457-18.567-10.87Zm-122.898-80.742c-3.737 23.355-6.246 46.844-9.865 70.209 12.62-3.159 16.352 8.163 21.044 5.001-3.291-4.32-2.894-7.584-1.921-12.611 1.93-16.948 8.249-33.073 16.085-48.12.893-1.721 1.81-3.43 2.738-5.132-10.074.915-20.919-1.954-28.081-9.347Zm77.816 66.6c-.867 1.339-1.208 2.958-1.485 4.508-.142.801-.064 1.981-.349 2.879 5.42.16 10.873-1.096 15.755-3.422-3.878-.277-12.414.38-13.921-3.965Zm-3.371 3.453a7.078 7.078 0 0 0-1.377 1.289c-.133.747.254 1.562.881 2.024.126-1.094.278-2.226.496-3.313Zm10.588-15.638c.016 3.378.222 6.714.185 10.09-.006 1.173.343 2.652-.375 3.647l1.14.119c2.86.295 5.775.544 8.632.218.093-4.396.095-8.812.385-13.206-3.523-.023-6.499-.614-9.967-.868Zm10.918 13.462a6.33 6.33 0 0 0-.003.413c.411-.079.82-.169 1.224-.278-.332-.031-.673.025-.998-.09a.892.892 0 0 1-.223-.045Zm-12.308-.524c-.361.408-1.065.483-1.51.209-.09.019-.18.031-.275.036l-.081-.003.309.079c.645.161 1.145.26 1.807.355a2.513 2.513 0 0 1-.25-.676Zm14.829-.019a1.17 1.17 0 0 1-.338.389c.16-.052.321-.104.478-.163a3.365 3.365 0 0 0-.14-.226Zm-18.684-.926c.062.138.195.353.347.467a2.33 2.33 0 0 1-.347-.467Zm16.072-2.178c.002.083.004.163.009.244.044-.041.094-.09.157-.114a2.723 2.723 0 0 1-.166-.13Zm-14.532-18.423c-2.657.863-1.727 4.192.285 5.283 2.187 1.441 5.491 1.216 8.001 1.434 2.698.189 9.773 1.661 8.523-3.043a1.974 1.974 0 0 0-.724-.728c-.024.059-.05.114-.076.168-.109 3.286-11.082 1.508-12.976.256l-.12-.052c-1.595-.686-3.105-.969-2.913-3.318Zm3.248-38.524c.576 2.576.387 5.255.75 7.838.228.749-.064 1.249-.531 1.505l.335.098c2.909.832 5.842 1.225 8.87.547-.337-2.707.418-5.773.798-8.511.061-.313.087-.623.156-.908l-10.378-.569Zm11.526.631c.051.386.044.807.088 1.209a.11.11 0 0 1 .033-.038c.38-.33.724-.754 1.088-1.119-.399-.006-.807-.03-1.209-.052ZM190.129 316.13l-.25.049c4.343 21.717 7.761 43.711 8.944 65.863l.016.325c.118 2.178.413 4.589-1.04 6.401-1.531 1.913-3.918 2.155-6.181 2.503-19.149 2.906-38.57 3.888-57.926 3.259 2.236 29.776 3.064 59.64 4.483 89.464l.064 1.563c.673 16.862.831 34.183-4.75 50.31-8.919 20.001-20.032 39.027-22.558 61.297 8.179 6.184 19.154 9.983 29.275 7.757 12.031-22.489 28.184-42.324 41.556-63.94 25.074-43.471 22.597-96.05 21.96-144.256-.089-.336.248-.452.228-.06.259-.023.53.098.58.394 1.526 10.103.982 20.387.917 30.569-.023 7.597.503 15.486-.057 22.943-.793 25.619-3.999 51.587-13.561 75.54 11.83 2.643 19.126 14.936 32.125 6.748.002-14.952 9.944-27.354 15.105-40.858 6.966-16.284 12.185-33.285 15.913-50.588l.395-1.849c.485-2.261 1.017-4.606 1.843-6.778-.986-1.198-.138-3.509-.164-5.565-1.408 0-3.213-.585-3.385-2.205l-.007-.075c-1.034-11.385-1.122-23.087 1.015-34.35l-.302.018c-5.344.314-30.906 1.383-31.6-2.91-.953-7.198 1.349-14.334 1.819-21.48.844-16.146.64-32.356.529-48.523-5.128.68-10.053-.299-15.128-.462-6.44-.476-13.072-.043-19.435-1.036l-.423-.068Zm79.935 44.185a1.814 1.814 0 0 1-.822.576c.003 6.843-1.379 13.572-5.167 19.497-1.663 2.198-2.557 4.732-3.354 7.342.229.709-.059 1.527-.593 1.932-3.501 10.631-3.862 22.013-2.57 33.056 3.937-5.77 5.498-12.655 6.6-19.445.059-.341.624-.336.686 0 1.307 7.258-.908 14.508-3.767 21.142-1.586 1.337-1.244 4.379-1.429 6.273 29.019 4.226 18.927-51.449 22.644-68.595.069-.472.471-.815.927-.96-4.353-.664-8.763-.713-13.155-.818ZM152.649 159.12l-.502.127c-5.294 1.323-6.7 1.352-7.037 7.571-1.318 8.78-6.183 16.439-8.37 24.929-.875 2.998.051 8.524 4.198 7.712 1.344-.412 2.392 1.398 1.375 2.358-3.004 2.84-5.92 5.766-8.853 8.675 11.777 39.723 27.077 78.414 45.714 115.431.739 1.469-1.477 2.761-2.211 1.291-18.528-37.135-33.937-75.813-45.897-115.546l-.361-1.205c-.529-1.463 6.225-6.705 7.455-8.416-12.316-5.928 4.836-26.675 5.336-36.651-3.566 1.399-7.52.916-11.243 1.524-7.153 1.253-13.431 5.383-19.012 9.84-22.668 20.001-37.154 47.693-51.644 73.794-9.869 17.03-14.626 37.847-4.723 55.962 11.49 23.227 24.82 45.614 38.913 67.347 1.548 2.009 3.928-.298 5.559-1.145 9.373-5.629 17.501-13.286 23.752-22.239-16.39-20.532-31.638-42.964-40.134-67.946-.679-6.078 7.847-13.12 10.958-18.401 6.871-9.466 13.289-19.264 19.417-29.219-.193-.983.215-2.066 1.259-2.036l.605-1.008c4.667-7.759 5.192-8.051.556 1.432 2.358 35.081 1.966 70.842 2.986 106.143a331.535 331.535 0 0 0 8.499 10.763c9.422-6.489 20.505-10.72 31.888-12.031l.435-.043c4.797-.485 13.108-1.597 13.755 4.807-.783 7.717-16.742 3.379-21.844 7.755 8.364 3.368 17.948 4.317 25.627 9.395 2.463 1.436 7.292 6.011 2.575 7.762-2.059.176-4.185-.623-6.242-.799 2.315.78 4.444 2.1 5.8 4.17.976 1.419 1.688 4.365-.644 4.972-5.316.15-10.611-1.582-15.847-2.444l.465.189c3.817 1.562 9.751 4.367 4.61 8.503-5.148 2.662-11.379-1.867-16.506-3.075-13.809-3.211-24.024 5.588-38.181-3.939-.397 4.196-1.668 8.513-1.278 12.712 3.401 3.181 14.009 3.075 18.748 3.497l.004-.033c.048-.46-.181-2.648.528-1.704.066.59.137 1.178.211 1.768 17.233.498 34.532-.081 51.637-2.304l.722-.094c2.627-.351 5.372-.581 7.951-1.207 2.638-.354 2.643-3.164 2.363-5.233-3.622-76.388-34.677-148.217-43.372-223.711Zm48.811 6.309c.61.908 1.287 1.773 2.018 2.591 1.124-1.743 3.87-2.727 4.646-.131.877 2.671 2.133 5.417 2.17 8.246 17.95 58.503 18.405 120.713 18.056 181.395.537 9.625-2.449 19.047-2.173 28.619 9.833 1.415 19.807 1.536 29.679.489.293-.766.623-1.52.997-2.26 14.778-18.013 6.941-40.586-.175-60.098-4.303.182-8.631-.091-12.938-.038 1.331 4.118 1.674 8.475 2.382 12.733a123.179 123.179 0 0 0 1.805 9.032l.19.797c.266 1.101.62 2.291.232 3.384-.38 1.078-1.69 1.514-2.56.675-1.567-1.786-1.399-4.447-1.905-6.662l-.125-.93c-.858-6.286-1.947-12.799-.39-19.031-1.547-.332-5.777.887-5.999-1.192.065-3.435-2.427-10.878.347-13.14 1.651-1.259 4.489-.86 6.424-.938 2.237-.091 4.472-.174 6.707-.159-17.96-43.393-12.965-56.75-11.143-99.936l.054-1.317c-.004-.285.454-.356.504-.069 2.746 17.689-.914 35.598.82 53.344 3.079 33.715 24.449 62.663 28.021 96.216 7.706-.893 15.498.203 22.967 2.136.157-1.363.278-2.731.364-4.098 1.417-25.045-7.373-49.369-17.629-71.831-6.146-11.923-9.945-24.649-11.535-37.955-3.087-17.33-10.016-33.655-16.922-49.754-4.365-12.038-13.803-14.876-25.506-16.274a4705.347 4705.347 0 0 1 11.787 19.657c.874 1.985-1.805 3.401-2.973 4.622 14.376 7.839 5.982 32.045 6.279 45.608-1.067 12.463-1.47 24.997-3.351 37.374-.138.858-1.454.607-1.466-.197.174-18.545 2.385-37.014 3.356-55.529l.142-1.628c.747-8.753 1.363-21.159-9.069-23.54-1.422-.232-1.532-2.346-.389-2.981a17.295 17.295 0 0 0 4.044-3.11c-6.014-9.655-11.259-19.826-17.588-29.27-4.5-5.763-4.078-3.731-10.155-4.85ZM172.408 342.47c-1.163-3.424-12.45-1.194-15.463-.822-11.11 2.098-22.291 7.013-30.752 14.584-.523.467-1.14.459-1.627.206-3.79 4.84-8.167 9.228-12.967 13.083a54.81 54.81 0 0 0 2.71 2.005c.444.047.845.277 1.026.689 13.207 9.568 22.922 2.105 36.642 3.829 5.123 1.032 9.84 4.29 15.118 4.427 3.874-.881.463-2.5-1.346-3.127-4.37-2.085-8.831-3.974-13.296-5.846l-2.511-1.053c-1.646-.69-1.081-3.176.757-2.742 3.218.758 6.446 1.479 9.676 2.188 6.211 1.266 12.57 2.891 18.847 3.507-1.396-3.877-16.199-8.064-20.503-9.605-1.626-.768-6.262-.622-5.733-3.142.428-2.344 5.361.341 7.006.532 6.714 1.703 13.568 2.735 20.41 3.773-7.349-7.371-18.74-8.008-28.126-11.46l-.258-.058c-1.669-.389-3.955-1.121-2.598-3.018 4.822-7.108 23.795-3.511 22.988-7.95Zm-13.886-39.578c3.423-2.807 5.257 2.96 5.04 5.641.161 2.226.335 4.451.48 6.677-.213 1.74 1.642 8.083-.839 8.141-10.845-.55-21.671-.411-32.519-1.064-.015 2.188-.121 4.373-.01 6.563-.059 2.738.893 5.474.337 8.181-.339 1.244-2.033 1.413-2.693.351-1.982-4.661-.62-10.673.784-15.386-8.152-2.027-4.265-8.711-4.244-14.442-.012-.151.14-.23.264-.201 2.031 2.835-.614 6.621.546 9.703 1.163 3.27 5.985 3.077 8.899 3.115l.353.007c8.957.153 17.908.522 26.865.696-.382-3.014-.487-6.105-.717-9.117-.29-2.166.129-4.734-.974-6.675-4.98 1.619-10.165 2.264-15.401 2.162-6.242.169-12.801.73-18.904-.014 8.747-1.352 18.411-1.154 27.326-2.868 1.771-.459 3.58-1.383 5.407-1.47Zm-43.057-65.083c-5.397 10.295-11.6 20.091-18.208 29.629a250.74 250.74 0 0 1-4.346 6.041l-.182.234c-2.978 3.799-6.136 6.92-3.319 11.944 7.306 17.741 17.089 34.402 28.423 49.865-.719-32.572-1.353-65.152-2.368-97.713Zm135.583 71.523c-13.55 2.839-13.804-2.478-11.542 12.569 5.434.037 10.865-.086 16.301.002-1.553-4.202-3.163-8.386-4.759-12.571Zm-45.154-141.163c-.567-.009-1.436.324-2.014.289a26.816 26.816 0 0 0 3.626 3.216l.228.166-.103-.198c-.546-1.067-.999-2.294-1.619-3.29l-.118-.183Z" clip-rule="evenodd"></path><path fill="#fff" fill-rule="evenodd" d="M219.278 83.826c-7.831-11.07-27.51-12.316-39.947-12.246-24.561-.204-29.704 27.97-30.987 47.713-2.619.445-5.167 1.356-6.896 3.411-2.105 2.502-2.832 6.796-.858 9.594 1.31 1.858 3.38 2.479 5.545 2.583 7.17-.683 8.64 5.695 12.172 10.477 9.061 12.217 24.759 16.18 39.157 16.241 4.891.13 10.782.496 13.914-4.096 9.891-17.111 10.107-39.805 10.717-59.196.084-4.965.062-10.22-2.817-14.48Z" clip-rule="evenodd"></path><path fill="#000" fill-rule="evenodd" d="M236.179 93.428c.1.187.173.395.214.62.128.718-.136 1.266-.484 1.798.046.371.071.731.091 1.048.111 1.776-.297 4.212-1.867 4.937a5.1 5.1 0 0 1-.075.088 1.37 1.37 0 0 1-.549.491c-.06.042-.121.081-.183.116a.676.676 0 0 1-.051.038l-.037.028.056-.061.041-.044c-.868.345-1.707.417-2.602.312a16.15 16.15 0 0 1-1.576.464c-1.461.36-3.345.648-4.768.034a2.946 2.946 0 0 1-1.018-.698c.021 1.1.054 2.199.101 3.299.098 2.78.093 5.558.072 8.341-.024 3.13-.112 6.264-.281 9.392a82.198 82.198 0 0 1-.372 4.705 139.14 139.14 0 0 1-.502 4.562c-.453 3.119-1.201 6.262-2.113 9.277a59.421 59.421 0 0 1-1.325 3.927c-.209.595-.43 1.183-.67 1.766-1.266 3.055-2.843 6.003-4.973 8.549-1.164 1.389-2.449 2.638-3.883 3.688a17.503 17.503 0 0 1-3.769 2.251c-2.945 1.285-6.232 1.574-9.417 1.527-1.214-.017-2.502-.231-3.707-.431l-.073-.013a32.72 32.72 0 0 1-2.836-.602 30.53 30.53 0 0 1-2.477-.682 12.857 12.857 0 0 1-2.817-1.112l-1.586-.595a15.272 15.272 0 0 1-1.931-.884l-1.724-.803a23.974 23.974 0 0 1-2.09-1.135.42.42 0 0 1-.183-.173l-.221-.121a13.225 13.225 0 0 1-.308-.169c-.029-.014-.008-.097.03-.177-.03-.064-.026-.135.06-.199.064-.05.166-.036.273-.003a.171.171 0 0 1-.024-.021l-.112-.061c-.08-.042-.16-.085-.239-.129a.189.189 0 0 1 .076-.355l-.004-.001-.003-.002c-.022-.014-.005-.08.026-.154-.06-.076-.079-.168.026-.249.143-.112.464.072.614.158l.032.018c.093.052.187.101.281.151l.17.091a.146.146 0 0 1 .059-.06 51.66 51.66 0 0 1-.657-.353c-.136-.071-.312-.22-.133-.36.142-.114.51.081.686.18a.142.142 0 0 1 .074-.028c-.031-.018-.062-.034-.094-.051-.047-.025-.094-.05-.139-.077-.214-.119-.069-.489.152-.365l.039.023.039.024c.151-.013.361.104.469.164l.016.009c.743.467 1.517.875 2.32 1.225.541.256 1.085.51 1.631.756.537.266 1.091.496 1.658.69a86.53 86.53 0 0 0 4.325 1.55c2.04.557 4.151 1.005 6.27 1.181.275.021.551.04.826.049l.9-.006c.303-.001.606-.003.907-.006l3.187-.325.323-.032c.409-.057.808-.128 1.202-.211.207-.05.413-.102.618-.162.071-.009.142-.023.213-.035.501-.133.993-.292 1.485-.476.308-.126.615-.259.919-.399a16.222 16.222 0 0 0 2.923-1.789l1.746-1.735 1.752-1.74 1.067-1.45c1.377-1.965 2.467-4.155 3.372-6.39l1.439-4.138c.15-.498.292-.996.428-1.496l.819-3.353c.09-.41.178-.818.264-1.226.525-2.538.814-5.114 1.064-7.691.456-4.688.579-9.39.612-14.097.022-2.813-.002-5.627-.059-8.438-.033-1.63-.057-3.261-.081-4.891-.031-1.73-.064-3.463-.109-5.193a.162.162 0 0 1 .031-.1c-.005-.204-.007-.408-.01-.614-.002-.135.05-.194.126-.206a415.473 415.473 0 0 1-.026-3.7c0-.08.038-.132.088-.163v-.313c-.207-.858-.487-1.7-.85-2.5a9.42 9.42 0 0 0-.413-.847 4.659 4.659 0 0 0-.732-1.13 5.07 5.07 0 0 0-.912-1.124 41.16 41.16 0 0 0-.437-.313 2.987 2.987 0 0 1-.456-.303l-.423-.26c-.14-.088-.281-.175-.422-.261-.164-.086-.057-.299.059-.356v-.007a.33.33 0 0 1-.085-.052 13.963 13.963 0 0 0-1.069-.91.202.202 0 0 1-.204-.033c-.219-.204-.442-.4-.67-.59a14.377 14.377 0 0 0-1.603-.91 23.847 23.847 0 0 0-2.753-1.093 18.23 18.23 0 0 0-.549-.168l-.061-.018-.332-.017-.535-.025a260.482 260.482 0 0 0-40.212 1.352c-.497.055-1.016.099-1.544.143-1.939.161-4.016.334-5.692 1.168a4.58 4.58 0 0 0-.26.142c.145.924.492 1.83.829 2.71l.152.399c.585 1.549 1.109 3.128 1.057 4.805-.036 1.17-.288 2.295-.651 3.395-.186 1.567-.676 3.08-1.195 4.568-2.557 7.317-3.949 14.809-3.806 22.577.004.208-.044.389-.127.544l.004.031c.046.329.091.659.144.987.214 1.309-1.516 1.96-2.113 1.092a.25.25 0 0 1-.147.072c-.152.014-.401-.235-.472-.349a6.947 6.947 0 0 0-.295-.495.571.571 0 0 0-.038-.017l.095.195.097.201c.105.209-.296.311-.415.119a13.56 13.56 0 0 0-.321-.484c-.061.045-.13.057-.175-.017a7.896 7.896 0 0 0-1.309-1.63c-.762-.621-1.596-.998-2.544-1.218a8.777 8.777 0 0 0-2.249-.026c-.847.099-1.74.31-2.507.696l-1.879 1.287c-.154.161-.302.33-.439.505a8.83 8.83 0 0 0-1.071 1.799l-.036.119a7.335 7.335 0 0 0-.34 1.649l-.009 1.069-.01 1.069a9.29 9.29 0 0 0 .696 2.683c.171.505.44.955.803 1.353.195.337.415.643.662.927a8.407 8.407 0 0 0 1.63.837c.142.038.285.075.43.104a6.944 6.944 0 0 0 2.322.462 9.456 9.456 0 0 0 2.971-.263 8.018 8.018 0 0 0 1.739-.519 8.622 8.622 0 0 0 1.515-.974c.052-.033.13-.014.216.028l.055-.039c.086-.063.172-.125.256-.193.047-.033.09.007.112.05l.028-.022c.188-.128.703.273.47.51.1.062.2.135.29.211.413.017 1.247.775 1.09.893a8.868 8.868 0 0 1-.727.562c.221.164.511.417.376.519-.243.23-.506.429-.786.6a7.52 7.52 0 0 1-.589.408c-.221.13-.447.241-.68.346.406.784.794 1.576 1.155 2.381.239.572.517 1.124.838 1.655a12.72 12.72 0 0 0 1.47 2.273c.465.782 1.012 1.5 1.636 2.157a26.001 26.001 0 0 0 2.482 2.464c.352.249.71.491 1.083.714a17.698 17.698 0 0 0 3.042 1.841c.126.069.226.221.079.339l-.007.003a.03.03 0 0 0-.008.004c.352.2.706.396 1.062.591l.012.006c.143.078.41.221.202.389-.138.114-.563-.09-.817-.222l.111.061.013.007c.106.057.504.27.239.408a.607.607 0 0 1-.401-.069 8.453 8.453 0 0 1-.397-.161c.005.043-.019.083-.088.116a.568.568 0 0 1-.159.005c.29.164.58.325.872.483.085.046.489.268.223.406a.541.541 0 0 1-.378-.062 6.479 6.479 0 0 1-.65-.287c-.05-.028-.1-.054-.15-.083a.629.629 0 0 1-.114-.011c.233.125.468.246.705.365.14.075.376.229.174.386-.14.107-.518-.085-.741-.211a.405.405 0 0 1-.055.054c-.146.111-.492-.089-.666-.189l-.063-.036c-1.178-.63-2.315-1.282-3.41-2.029a27.83 27.83 0 0 1-1.962-1.369c-1.223-.944-2.335-2.041-3.353-3.198-.696-.791-1.074-1.237-1.748-2.197-1.083-1.545-1.9-3.157-2.686-4.866-.012-.026.012-.092.047-.158a53 53 0 0 1-.475-1.212c-.408.055-.819.093-1.225.117a10.268 10.268 0 0 1-2.786-.228c-1.09-.14-2.168-.448-3.123-.931a16.793 16.793 0 0 1-1.646-.934 9.621 9.621 0 0 1-1.351-.865c-1.841-1.403-2.84-3.581-3.085-5.843a10.134 10.134 0 0 1-.116-3.007 9.91 9.91 0 0 1 .477-2.114c.435-1.52 1.244-2.925 2.418-3.989.197-.202.403-.394.624-.574a8.288 8.288 0 0 1 2.183-1.275c.152-.073.306-.142.46-.206l-.187-.431c-.067.019-.297-.019-.326-.1l-.136-.383-.084-.24a.327.327 0 0 1-.157.042v.24c.002.068-.128.495-.2.272-.045-.124-.087-.251-.129-.377a17.025 17.025 0 0 0-.082-.241.276.276 0 0 1-.121-.135.493.493 0 0 0-.024-.064c-.002-.002-.005-.002-.008-.003a.019.019 0 0 1-.008-.002v.073c.002.045-.117.387-.138.32a27.636 27.636 0 0 1-1.007-3.451 18.329 18.329 0 0 1-.425-1.957 37.104 37.104 0 0 1-.307-1.794l-.021-.15-.004-.017-.003-.016c-.007-.064-.014-.13-.024-.194a40.029 40.029 0 0 1-.233-2.05 43.078 43.078 0 0 1-.161-4.25c-.019.007-.038.017-.056.026l-.034.017c-.617.262-1.269.476-1.933.647a6.631 6.631 0 0 1-5.146 2.876 6.811 6.811 0 0 1-2.232-.258 2.311 2.311 0 0 1-.231.041c-.375.049-.677-.031-.989-.114-.175-.046-.354-.094-.55-.12a58.587 58.587 0 0 1-.21-.027c-.785-.101-1.454-.186-1.975-.653a1.627 1.627 0 0 1-.501-.068c-1.502.359-3.099-.434-3.627-2.094a5.61 5.61 0 0 1-2.103-2.217c-.93-1.19-1.673-2.648-2.134-4.181l-.009-.017a3.941 3.941 0 0 1-.368-1.62c-.249-1.552-.183-3.105.29-4.47-.02-.74.154-1.512.473-2.212.387-.849.977-1.825 1.743-2.39.002-.87.376-1.828.867-2.477.98-1.296 2.4-1.981 3.938-2.08.782-2 3.151-2.468 5.194-1.802.849-.865 2.092-1.279 3.333-1.132 1.049.125 1.946.626 2.688 1.316.196.055.391.114.586.174a3.274 3.274 0 0 1 2.102-.17c1.202.309 1.987 1.218 2.529 2.26.173.12.342.242.507.37.182.082.346.19.496.317.217.116.401.306.513.581a8.3 8.3 0 0 1 .844 1.007c.189-.436.383-.87.585-1.299.327.099.723-.029.888-.465l.042-.111c1.053-2.79 2.929-7.757 4.697-10.063a12.243 12.243 0 0 1-7.511 2.082c-1.364.235-2.749.256-4.021.002a21.022 21.022 0 0 1-3.085-1.416 3.25 3.25 0 0 1-.176-.162l-.068-.065c-.168.012-.343 0-.529-.05a3.145 3.145 0 0 1-1.754-1.247 2.489 2.489 0 0 1-.19-.34 5.435 5.435 0 0 1-1.103-1.487 5.257 5.257 0 0 1-.553-2.164c-.138-.735-.128-1.491.128-2.193.018-.047.038-.094.058-.141l.035-.084.016-.059a3.469 3.469 0 0 1 .311-.77c.043-.216.113-.431.212-.64.011-.101.025-.203.042-.303-.755-1.421-.488-3.28.642-4.434a2.852 2.852 0 0 1 .458-2.201 3.53 3.53 0 0 1 1.326-1.138c.055-.027.2-.075.374-.13.195-.172.4-.334.625-.477.053-1.39 1.443-2.19 2.645-2.884l.173-.1c.392-.227.676-.553.961-.88.298-.342.597-.685 1.021-.913.741-.4 1.651-.491 2.506-.577.189-.02.375-.038.556-.06 2.358-.283 4.868-.502 7.238-.246 1.315.142 2.404.776 2.855 1.815 1.132.133 2.14.948 2.938 1.786.996 1.046 1.844 2.16 2.137 3.534.194.105.371.233.531.378a10.369 10.369 0 0 1-.4 2.847c.079.546-.085 1.066-.364 1.538.043.447.012.888-.082 1.326.542.959.035 2.408-.723 3.358l-.006.537a.693.693 0 0 0 .13-.086c2.182-1.853 4.402-2.364 6.801-2.916 1.385-.318 2.829-.65 4.36-1.263a76.975 76.975 0 0 1 11.482-1.342l-.065-.01a2.826 2.826 0 0 1-.088-.012c-1.947-.318-3.816-1.117-5.424-2.264a2.781 2.781 0 0 1-1.19-.62 2.597 2.597 0 0 1-.734-1.057 9.894 9.894 0 0 1-.188-.206c-1.207-.296-2.126-1.338-1.973-2.708-.764-.903-1.045-2.017-.786-3.178-.427-.72-.465-1.627-.146-2.387-.671-.814-.723-1.968-.197-2.889-.48-.681-.587-1.584.006-2.391.28-.381.667-.622 1.09-.738.119-.439.361-.847.742-1.162.196-.162.401-.282.611-.371.079-.454.336-.884.83-1.222.224-.153.453-.252.681-.307.216-.533.593-1.001 1.123-1.305.64-.366 1.384-.414 2.062-.222.885-1.336 2.828-1.854 4.174-.863 1.122-.693 2.533-.547 3.54.296 1.219-.72 2.733-.43 3.689.573 1.531-.835 3.553-.218 4.373 1.364 1.545-.17 3.002.839 3.414 2.3l.199.166.018.015c.926.044 1.806.406 2.325 1.266.259.429.379.933.361 1.428.554.298 1.001.788 1.192 1.423.18.595.112 1.184-.124 1.697.771.819.975 2.094.429 3.122.226.387.343.844.325 1.32-.028.703-.355 1.27-.799 1.755.559 1.007.341 2.3-.568 3.005-.522 1.848-1.844 3.078-3.87 3.832-1.017.378-2.081.67-3.166.884 4.341.583 8.61 1.607 12.712 3.135.223.083.412.05.557-.046l.119.06c.05.026.101.052.151.08a44.688 44.688 0 0 1 3.316 2.007c0-.119.002-.237.007-.358a9.807 9.807 0 0 1 .341-2.862 4.482 4.482 0 0 1-.732-1.531c-.345-1.355.312-3.282 1.491-3.745.413-1.143 1.353-1.97 2.505-2.297.091-.082.188-.162.297-.236.242-.166.507-.28.78-.346a2.62 2.62 0 0 1 1.063-1.59c.811-.566 1.77-.627 2.613-.319.16-.053.323-.1.487-.14 1.357-1.153 3.471-1.068 4.664.28.82-.373 1.785-.39 2.624.113.671.402 1.089 1.051 1.253 1.764 1.27.038 2.432.88 2.799 2.135a2.7 2.7 0 0 1 2.332 2.198c.747.104 1.437.454 1.856 1.15.194.323.299.675.327 1.028.377.18.716.455.972.812.448.627.534 1.359.37 2.047l.047.093.068.135c.122.259.219.537.307.818.393.567.575 1.26.539 1.956.084.294.165.59.232.886.266 1.163.366 2.403.183 3.588-.09.573-.221 1.138-.406 1.685-.019.104-.05.202-.086.294a8.963 8.963 0 0 1-.399 1.27 26.107 26.107 0 0 1-1.256 1.54 9.708 9.708 0 0 1-1.271 1.537 9.125 9.125 0 0 1-1.123.938 8.738 8.738 0 0 1-2.639 1.458c-.17-.036-.341-.063-.512-.09-1.08.593-2.78.66-3.819.656-1.145-.004-2.194-.293-3.066-.838l.303.603c-.025.014-.052.027-.074.044-.188-.312-.399-.588-.647-.787-.338-.273-.884-.297-1.119.143a.668.668 0 0 0-.024.667l.104.151.011.013.027.03h-.006c.324.261.643.9.946 1.52.204.362.399.73.582 1.104a.826.826 0 0 0 .497.334.812.812 0 0 0 .325.76c.059-.119.131-.24.224-.367 1.021-1.384 3.026-1.98 4.536-1.348.301-.051.604-.093.909-.117.997-.066 2.008.013 2.992.219.306.182.598.388.87.623.231.2.444.408.644.624.154.115.306.237.455.365.604.324 1.047.945 1.419 1.564.296.417.554.86.778 1.33 1.035 1.767 2.23 3.962 1.296 5.7Zm-83.044 34.168c.38.439.677.927.89 1.465.086.173-.019.277-.194.247a.81.81 0 0 1-.295-.145l.026.058.026.058c.093.183.015.313-.197.244a.475.475 0 0 1-.033-.021c.109.194.209.393.294.602.093.185.01.313-.199.242a2.522 2.522 0 0 1-.313-.211l.037.081c.033.071.066.143.096.217.095.188-.015.285-.2.242a2.474 2.474 0 0 1-.484-.347l-.019-.018c.061.154-.055.249-.209.218-.219-.042-.63-.41-.73-.604l-.009-.018-.01-.018a1.985 1.985 0 0 1-.337-.291c-.076.109-.223.189-.29.057a3.516 3.516 0 0 0-.935-1.399 3.67 3.67 0 0 0-.881-.903 10.412 10.412 0 0 0-.575-.448 5.336 5.336 0 0 0-1.092-.36 2.103 2.103 0 0 0-.131-.034 2.92 2.92 0 0 1-.1-.025l-.028-.005c-.159-.029-.316-.058-.475-.08a9.08 9.08 0 0 0-2.064-.05c-.124.005-.242-.09-.295-.199-.154.007-.306.014-.46.028-.254.01-.2-.348-.007-.384.242-.045.484-.078.722-.106a.141.141 0 0 1-.003-.064 8.49 8.49 0 0 0-1.304.033c-.19.009.036-.342.14-.361l.075-.012.07-.011c-.004-.007-.007-.012-.009-.019h-.012c-.261.012-.439-.403-.126-.46l.112-.018.118-.02a.147.147 0 0 1-.002-.109c-.135-.002-.268-.002-.404-.002.036-.003.067-.077.099-.156.035-.084.072-.172.117-.178l.087-.012.122-.017c.005-.088.138-.291.195-.303.451-.076.893-.128 1.33-.145.043-.099.105-.232.164-.232.496-.007.974-.003 1.449.047.019-.014.038-.021.054-.019l.226.055c.264.038.527.092.796.17a6.789 6.789 0 0 1 1.816.851c.518.346 1.033.707 1.485 1.138.159.135.308.282.451.434.23.189.453.384.667.576.261.239.516.485.758.741Z" clip-rule="evenodd"></path><path fill="#000" fill-rule="evenodd" d="M203.273 120.962c1.794 1.088 4.526 3.625 2.597 6.322-2.271 2.378-5.541-.349-7.152-1.582-1.494-.956-3.172 1.502-1.786 2.618 11.642 8.603 16.367-7.073 7.248-8.637-1.004-.172-1.377.943-.907 1.279Zm-16.203-20.747.446-.078.228-.038c1.336-.22 2.919-.368 3.842.678.517.587.696 1.678 0 2.239-1.224.989-2.576.606-4.043.689-1.208.07-2.369.269-3.533.601-2.554.728-4.634 2.058-6.815 3.518-.286.192-.578-.174-.442-.441 1.259-2.461 3.699-4.482 6.143-5.714 1.304-.658 2.731-1.204 4.174-1.454Zm11.812 33.997c3.903.283 12.36-1.576 15.871 1.212 13.235 16.493-39.234 20.733-33.567 2.487 3.609-5.9 11.91-3.529 17.696-3.699Zm-.669 9.956c-.965-.078-2.136.685-2.42 1.274-.283.59-.174 1.836-.165 2.052 1.687.17 3.389.196 5.082.085-.44-1.451-.454-3.191-2.497-3.411Zm7.791 2.435c-.271-1.801-1.562-2.228-2.607-1.957-1.069.276-1.697 1.504-1.629 2.597.005.076-.039.14-.068.2a29.172 29.172 0 0 0 4.304-.84Zm-11.968-2.108c-.608-.924-2.062-1.37-2.994-1.207-1.52.319-1.7 2.248-1.7 2.641 1.402.533 2.89.887 4.313 1.169.286.056.572.107.859.154l.019-.234c.034-.501.06-1.678-.497-2.523Zm17.202-.153c-1.559-2.407-4.911-.684-4.634 1.946.298-.093.594-.191.889-.294 1.225-.426 2.569-.932 3.745-1.652Zm-12.276-8.294c-2.097-.189-3.818-.125-5.186.128l-.041.456c-.151 1.581-.347 3.136.485 3.772.676.516 2.919.467 4.422.093.372-.093.855-3.372.32-4.449Zm3.244-.189c-.336 1.559-.494 3.451.181 4.013.713.593 3.007.513 3.607.117.525-.346.512-1.937.317-3.723-1.162-.274-3.186-.407-4.105-.407Zm-9.357.333-.687.006-.389.005c-.983.017-2.043.074-3.046.292-1.991 4.296 5.282 5.037 4.159-.144l-.037-.159Zm14.387.103-.013.244c-.06 1.206-.02 2.795.65 3.224.985.631 2.836.509 3.839-2.41-.332-.871-3.851-.994-4.476-1.058Zm-19.302-25.611c.421 0 .824.142 1.19.406.361.26.688.639.96 1.112.516.895.838 2.131.838 3.497s-.322 2.602-.838 3.497c-.272.473-.599.852-.96 1.111a2.02 2.02 0 0 1-1.19.407c-.421 0-.824-.143-1.191-.407-.361-.259-.688-.638-.96-1.111-.515-.895-.837-2.131-.837-3.497s.322-2.602.837-3.497c.272-.473.599-.852.96-1.112.367-.264.77-.406 1.191-.406Zm26.656 0c.421 0 .823.142 1.19.406.361.26.688.639.96 1.112.515.895.837 2.131.837 3.497s-.322 2.602-.837 3.497c-.272.473-.599.852-.96 1.111-.367.264-.769.407-1.19.407-.422 0-.824-.143-1.191-.407-.361-.259-.688-.638-.96-1.111-.515-.895-.837-2.131-.837-3.497s.322-2.602.837-3.497c.272-.473.599-.852.96-1.112a2.021 2.021 0 0 1 1.191-.406Zm-3.627-11.571.341.07.227.047c3.681.791 8.347 2.348 10.07 5.915.067.515-.003.625-.061.697l-.019.024c-.048.062-.085.147-.309.217a17.204 17.204 0 0 1-.188-.047c-.806-.211-1.444-.502-2.061-.803l-.67-.329c-.777-.38-1.56-.746-2.391-1.017a28.195 28.195 0 0 0-5.446-1.2 2.234 2.234 0 0 1-1.092-.414 1.64 1.64 0 0 1-.611-.929c-.131-.523-.093-.919.188-1.392.212-.355.515-.6.863-.742a2.026 2.026 0 0 1 1.159-.097Z" clip-rule="evenodd"></path></svg>