<svg xmlns="http://www.w3.org/2000/svg" width="391" height="780" fill="none" id="muslim-woman"><path fill="#fff" fill-rule="evenodd" d="m125.183 275.771-.336 4.001-.251-.468c-.036 8.071-1.234 16.232-2.555 24.285-3.454-2.835-6.294-5.335-5.474-10.175 2.077-6.897 4.741-13.626 6.895-20.486l.361 1.799 1.421.286-.061.758Zm246.683 425.228c-.636-2.805-1.33-5.774-1.98-8.586-.065-.238-.66-.291-.852-.355-3.438-8.405-6.447-10.32-13.106-11.464-10.739-1.939-21.336-6.143-31.48-12.373.236-.927.884-2.528 1.472-4.238a1.513 1.513 0 0 1-.62.089c-.688 1.612-1.437 3.029-1.833 3.551-1.267-.816-2.677-1.713-3.918-2.58l.005-.015c-1.105-.765-2.471-1.709-3.553-2.298-.203-1.118-1.844-1.465-2.701-2.203-1.664-1.187-2.588-1.799-4.114-.283-3.293-4.269-5.945-8.783-8.552-14.619-1.632-3.41-2.433-7.187-4.627-10.233.042-.023 1.437-.457 1.471-.496-24.929-55.128-28.923-116.471-34.241-175.398-1.173-13.177-2.4-26.476-4.687-39.267-.313-1.938-.595-3.845-1.763-5.39 14.01-11.523 14.146-33.857 7.36-50.423 15.603-42.012-14.98-86.634-12.723-129.511 1.265-29.084-3.98-62.783-36.892-69.762-4.082-2.345-8.975-2.695-12.869-2.758-3.507-1.768-4.059-5.672-5.308-8.881l-1.219.008a136.56 136.56 0 0 1-1.02-4.509c-.463-.927-.189-2.137-1.647-1.879-3.305-4.777-29.754-7.178-30.054.513-.955.562-1.144 1.658-1.366 2.99-1.467 9.446-11.571 16.978-20.676 15.459l-.147-.133c-38.762-1.434-54.02 26.092-61.595 63.605-5.918 29.147-9.68 60.734-5.045 89.929 4.528 13.231 18.242 19.597 28.852 27.748-1.223 3.077-1.337 6.471-1.374 9.8-.14 3.843-.42 7.717-.761 11.509-.698 4.805-1.827 13.076 4.726 13.637 2.538 57.431 7.84 114.711-.262 172.31-6.725 31.854-4.151 70.396 4.165 101.563.48 1.54 1.713 2.925 3.287 2.433.799.516 1.423.839 2.084.352.39.72.817 1.412 1.278 2.083.175 8.562 1.147 16.963.704 25.581-.66-.076-2.112-.802-2.676-.327l-.081.657-.537.183c-1.125 3.167-1.83 6.491-2.352 9.173-2.276 4.597-5.183 12.732-3.562 17.852-.078.091-.515.598-.584.675-.387.221-.458.517-.553.857-1.104.413-1.217 1.673-1.331 2.961-.553 3.121.268 5.958.551 9.012l.016-.021.929 1.074c11.652.708 23.127.89 34.727 1.306.876-1.674 1.139-3.936 1.797-5.775 13.753 10.044 37.582 6.202 54.856 3.735 7.016-1.009 13.644-1.963 19.52-2.281.382-.053.41-.217.42-.369.057-2.299.49-4.656.274-6.887 1.214-1.177.661-3.32-.173-5.203-3.067-6.63-11.401-7.355-18.153-8.486-12.703-2.461-22.918-7.09-31.182-14.167a28.508 28.508 0 0 0 1.521-1.477l-.538-.359c-.435-.191-.851-.386-1.233-.632a.675.675 0 0 1-.678-.003c-.83-.466-1.507-1.15-2.296-1.674-.156.225-.314.454-.472.693-.756-.796-1.613-1.698-2.361-2.532-.027-.231.034-.806-.248-.869-2.127.215-4.592.931-6.817 1.726-2.516-8.252-3.973-17.182-3.805-25.615 2.474 0 4.641-.023 6.485-1.197.505.136 1.207.427 1.337-.364.749-3.229.944-6.648 1.132-9.955 3.829-62.547 9.662-112.808 29.012-165.792 1.858 7.357 4.977 15.008 7.816 22.332 12.916 30.607 22.221 63.615 30.197 95.74 3.138 12.025 6.549 25.239 9.919 37.139 1.306 5.72 3.962 7.814 9.528 7.769 4.289.201 8.593.138 12.9-.163 5.871 5.343 8.278 12.555 9.993 19.049-1.429 1.061-3.697.66-5.368 1.011-1.44 2.318-.942 5.559-.908 8.418.226 3.715.033 7.7 1.117 11.208.193 3.836.217 8.039.506 12.499-3.182 1.843-2.599 5.913-1.542 9.808.472.991 17.578.794 21.822.753 4.986-.29 12.097.982 13.732-4.475 11.871 6.583 29.932 4.359 43.762 2.421 10.038-1.221 19.131-2.357 28.988-4.428.102-.045.245-.361.174-.506Z" clip-rule="evenodd"></path><path fill="#000" fill-rule="evenodd" d="M264.224 665.193c2.675 1.483 4.815 3.796 7.623 5.079 12.154 6.08 27.541 2.805 36.802-6.944 1.306.027 2.355-1.4 2.078-2.685 2.778.245 4.969 2.382 7.037 4.069-.283 1.953-.152 3.916.638 5.786.062.149.331.208.364 0 .24-1.422.487-2.854.81-4.259a51.54 51.54 0 0 0 1.778 1.382c.053 1.168 1.273 2.019 2.271 1.616 8.183 5.545 17.433 9.48 27.038 11.782 7.516 1.568 11.419 1.406 14.753 9.309-1.236.247-2.451.847-4.308 1.299-31.424 3.662-63.137-.284-94.611 2.387-.421-6.91-.797-13.815-1.273-20.719-.168-2.485-.241-4.993-1.207-7.315.019-.284.064-.564.155-.782.016-.002.033-.002.052-.005Zm1.173-17.01c.102-.46-.259-.848-.617-1.152-.411-.692-.879-1.343-1.435-1.893 10.915-.964 21.379-4.317 31.632-7.774 1.238 8.8 5.635 16.793 10.589 24.054-8.409 8.752-22.103 10.883-33.111 6.098.735-1.617-.841-3.953-1.241-5.624-1.381-4.002-3.272-7.828-4.91-11.715-.28-.643-.574-1.323-.907-1.994Zm-2.246-.152c.074.053.149.107.223.155l.133.327c-.114-.124-.23-.245-.347-.363a1.588 1.588 0 0 0-.009-.119ZM162.254 684.33c.218.386.446.768.684 1.142-.457.285-3.901 7.586-1.976 6.418 1.068-1.519 2.137-3.05 3.289-4.512.321.426.651.846.993 1.256-1.185.851-.725 2.844.845 2.848.562.003.997-.113 1.52-.307 7.025 6.712 16.261 10.682 25.559 13.142 7.703 2.411 22.214 1.179 22.606 12.142-.783-.02-1.623.235-2.22.798-34.012 11.491-69.152-.622-103.458-3.976.474-.95-.129-2.663-1.384-2.589-.012-7.678 2.114-15.302 5.191-22.288 17.455 16.622 29.953.362 47.56-3.614.34-.069.601-.237.791-.46Zm8.998-2.984c-.05 0-.178-.016-.228 0-.708 2.385-2.214 4.535-4.132 6.077a54.864 54.864 0 0 1-1.503-1.427c1.28-1.484 2.681-2.856 4.303-4.015.455-.31.986-.67 1.56-.635Zm-67.87-307.175c-.454-1.659.06-3.395.112-5.082.389-4.59.919-9.217.817-13.829-.126-1.659-.161-3.264.209-4.885-.113-.435-.502.594-.618.69-.024-.13-.054-.261-.081-.391.186-.211.383-.396.597-.574a468.77 468.77 0 0 1 26.487 23.6c.883.846 2.187.794 3.078 0a79.557 79.557 0 0 1 5.733-4.655c.681 2.223 1.724 4.282 2.916 6.273-7.792.95-15.48-1.117-23.217-1.72-5.188-.398-10.395-.154-15.548.531-.133.018-.342.018-.485.042Zm17.178-73.734c-2.721-2.346-3.861-3.88-3.526-7.577 1.609-5.462 3.695-10.772 5.476-16.178.229 1.142.248 2.311.344 3.47-.629 6.778-1.117 13.579-2.294 20.285Zm2.767-25.654a5.4 5.4 0 0 0-.117-.211l.178-.547-.061.758Zm-49.06 41.724c.018-2.899-.362-5.817-.531-8.708a287.927 287.927 0 0 1 5.085-72.717c6.29-33.783 17.944-67.707 58.213-68.396 1.413 1.276 1.908 3.245 2.696 4.936 2.373 4.689 5.859 8.749 9.855 12.14 16.565 13.456 60.373 28.817 64.22-3.782a19.85 19.85 0 0 0-.223-3.15c.363-1.122.194-2.527-.062-3.788.173-.903-.093-1.939-.551-2.913.076-.064.147-.135.209-.213-1.808-3.444-4.907-4.571-8.348-5.868-.475-.474-.055-1.456.675-1.2 1.603.562 3.251.941 4.923 1.228.232.04.38.161.453.315 39.053 11.797 37.776 43.9 37.176 77.83.591 36.557 21.813 70.877 15.621 107.813-7.31-44.57-21.687-87.917-24.95-133.176-.245-4.059-.849-8.066-1.307-12.104-.235-1.7-.49-6.464-1.074-5.667-2.787 15.566-.61 31.559 1.729 47.056 5.156 31.493 13.676 62.309 19.441 93.683 3.181 13.948 3.523 28.614-10.495 36.679-15.152 8.321-34.004 6.649-50.376 3.277-1.306-.307-2.294.371-2.764 1.305-3.196-6.684-10.369-9.973-15.038-15.455-4.675-5.982-7.734-13.054-12.034-19.302.437-3.802-3.105-9.796-7.148-9.877-10.21-10.638-21.253-20.484-33.187-29.159-.173-.547-.639-.856-.966-1.346-.487-.827-.804-1.858-.727-2.811 1.811-10.446 2.235-21.284-.599-31.593 5.052-15.667 8.127-31.845 11.01-48.012.27-.781-1.042-1.148-1.237-.341a432.904 432.904 0 0 0-.983 5.153c-5.823 21.45-12.76 42.543-20.327 63.435-.883 2.913-1.71 5.821-1.211 8.872.432 1.778 3.134 1.607 3.444-.216.604-.177 1.139-.02 1.612.339.005-.007.007-.014.012-.019 3.621 5.167 8.419 9.437 13.302 13.481 8.364 7.096 16.567 14.382 24.293 22.17 1.835 2.368 7.998 6.595 8.433 9.795-.808 5.701-6.72 8.404-11.362 10.633-6.752 3.274-13.086 7.42-18.702 12.393-12.227-11.282-24.966-22.04-38.428-31.83-7.72-5.547-17.284-11.045-19.771-20.89Zm137.035-146.072c.033.183.064.365.095.545-.145-.201-.294-.4-.453-.59.118.017.237.031.358.045Zm44.097 240.814c-.131-.387-.269-.77-.406-1.154.357-1.714.896-3.32 1.059-5.122 3.462-3.512 5.612-8.294 6.187-13.173.17-1.434.27-2.809-.784-3.93-.387-.412-1.209-.457-1.589 0-1.292 1.553-.957 3.892-1.418 5.786-.969 4.011-3.212 7.792-6.426 10.345-1.81 1.477-4.122 3.341-6.194 3.909 1.617-6.308 5.175-12.312 5.647-18.959.136-1.948.012-3.771-.465-5.667-.355-1.181-.889-2.207-.468-3.436 4.89-3.151 9.21-7.688 11.404-13.169.781.086 1.583-.26 1.936-1.128 1.755 12.962 4.123 26.65-2.658 38.536-1.519 2.694-3.48 5.139-5.825 7.162Zm-69.73-30.012c-1.908-1.955-3.628-4.067-5.383-6.156-1.864-1.929-5.044 1.078-1.753 3.902 5.735 7.152 5.531 16.07 2.807 24.352-.47-2.128-.845-4.242-1.551-6.33-1.75-5.179-4.405-10.004-7.718-14.347-.798-1.045-2.864-.514-2.339.984 1.655 4.719 2.403 9.94 1.653 14.918-.352 2.32-1.354 4.527-1.49 6.882-.045.816.44 2.878-.85 2.411-.496-.18-.938-1.23-1.149-1.899-1.053-3.45-.832-7.107-1.235-10.656-.501-4.612-1.273-9.35-4.586-12.853-.727-.77-1.8-.275-2.145.564-2.619 6.308.091 14.131-4.567 19.663-.232.256-1.562 1.552-1.778 1.382-.366-.29.028-1.923.09-2.302 3.202-13.208-7.682-24.174-11.571-34.414 7.742-6.354 20.997-8.387 24.36-18.804 3.137 6.916 5.856 14.234 10.829 20.101 4.878 5.826 14.024 9.67 14.402 18.178-2.329-1.351-4.143-3.682-6.026-5.576Zm-70.18 276.199c5.984.093 11.996 1.947 17.928 1.849 5.479.194 10.965-.058 16.435-.389-2.067 8.139-1.27 17.682 1.463 25.576-10.634 4.964-20.316 12.053-31.978 5.131-.129-1.024-.478-2.04-.815-3.036.134-.55.236-1.27-.268-1.706.027-9.2-.923-18.407-2.765-27.425Zm209.345.124c.706.744-1.81 6.541-2.415 7.522-.718-.462-1.428-.915-2.133-1.398.56-1.669 1.316-3.264 2.413-4.721.297-.394 1.468-1.977 2.135-1.403Zm45.533 33.693c-.116-.503-.598-.96-1.123-1.088-1.512-3.897-3.927-7.793-7.668-9.843-2.259-1.169-4.762-1.508-7.225-1.996-10.336-2.012-20.16-6.099-29.135-11.509.881-2.489 1.708-4.959 2.237-7.539.864-2.888-1.438-5.302-4.323-4.091-2.536 1.138-4.07 4.623-4.825 7.12a29.41 29.41 0 0 0-2.007-1.275c-.361-1.008-1.553-1.437-2.472-2.008-1.432-.953-3.356-2.623-5.078-1.33-3.113-4.143-5.608-8.738-7.713-13.462-1.654-3.327-2.285-7.113-4.603-10.085.326-2.058-.936-4.112-1.778-5.941a117.754 117.754 0 0 1-2.231-5.068c-14.587-39.619-19.776-82.098-25.899-123.671-4.404-27.99-3.735-56.706-9.95-84.376 15.097-12.253 14.739-34.865 8.168-51.58 14.037-39.151-9.763-78.122-12.64-117.119-.923-28.459 3.821-62.632-25.823-78.699-3.754-2.067-7.786-3.735-12.004-4.563-3.903-2.19-8.555-2.724-12.974-2.81-2.494-1.352-3.202-4.455-4.097-6.947-.244-.899-.793-1.911-.89-2.83-.01-.081-.133-.114-.155-.021-3.461 9.105 5.267 18.619 14.148 19.766 4.003 14.092-4.418 26.656-19.594 25.857-17.571-1.315-42.411-10.992-48.763-28.803 2.801-.052 5.466-.924 8.108-1.754.61-.279 1.46-.237 1.836-.855 6.072-3.046 10.756-8.775 11.767-15.511a2.712 2.712 0 0 1-.232.157c.104-.066.199-.137.285-.211a17.373 17.373 0 0 0-.003-3.102c-.465-.42-1.125-.647-1.893-.493-2.336.469-2.384 2.927-2.759 4.771-.337 1.661-.969 3.19-1.819 4.655-3.464 5.874-10.089 9.961-17.021 9.072-.316-.284-.76-.424-1.19-.282l.095.076c-40.712-1.491-55.236 29.72-62.326 64.551-5.666 25.559-7.901 51.879-6.582 78.025.323 3.023-.075 11.262 1.903 13.04 4.347 13.193 17.97 19.393 28.242 27.285-1.084 3.101-1.108 6.404-1.164 9.653-.161 3.714-.41 7.426-.75 11.13-.307 3.342-1.183 7.094.03 10.346.775 2.051 2.508 4.193 4.8 4.465.617 5.608.817 11.28 1.302 16.892.579 51.393 6.467 103.059-1.661 154.172-2.995 19.412-5.46 39.071-3.42 58.712 1.532 14.593 4.428 29.029 7.61 43.335.579 1.891 2.078 3.691 4.192 3.366.728.439 1.615.778 2.405.396.111 9.139 1.298 18.266.642 27.412a62.98 62.98 0 0 0-1.33-.773c-.257-.548-.771-1.076-1.39-.749-.135-.061-.311.058-.28.197-1.129 3.055-1.889 6.378-2.515 9.587-2.198 4.221-3.532 8.926-3.975 13.681-.218 1.855-.536 4.252 1.097 5.581-.567.02-1.272.066-1.442.726-.803 1.965-2.116 14.055.867 14.002 11.556.704 23.165.891 34.735 1.306.63.024 1.23-.462 1.392-1.057.368-1.349.765-2.69 1.149-4.034 18.37 10.061 62.239 4.198 73.306 1.952 2.28 0 2.428-7.087 2.28-9.247 1.287-1.628.48-4.354-.311-6.075-3.337-7.225-12.077-7.997-19.006-9.153-10.692-2.056-21.166-6.086-29.618-13.064 2.281-2.161 4.985-5.728 4.693-8.985-.304-1.417-1.579-2.204-2.975-2.119-3.181.266-5.496 3.606-7.289 5.897a78.137 78.137 0 0 1-1.109-1.197c-.04-.851-.608-1.68-1.601-1.562-1.966.235-3.878.713-5.749 1.349-.464-2.15-1.318-4.25-1.796-6.409-1.26-5.412-1.557-10.945-1.677-16.489 2.297-.035 3.617-.147 5.401-1.09.969.284 2.066-.074 2.365-1.37.976-4.212 1.029-8.563 1.326-12.867 3.3-54.577 9.247-109.543 28.223-161.193 1.979 6.225 4.585 12.228 6.813 18.368 15.567 40.484 25.245 82.841 36.491 124.641.952 3.51 1.919 7.015 2.909 10.514 1.383 5.964 4.279 8.711 10.63 8.686 4.17.195 8.349.146 12.516-.13 4.923 4.646 7.306 10.853 9.031 17.205-1.256.626-4.974-.296-5.139 1.405-1.559 2.546-.894 5.834-.924 8.682.231 3.82.034 7.868 1.171 11.528.063 3.856.215 7.712.42 11.566-3.4 2.449-2.382 7.326-1.448 10.774-.193 2.445 20.069 1.345 22.955 1.558 4.753-.389 11.756 1.087 14.271-4.075 15.763 7.744 37.604 2.229 54.58.661a351.176 351.176 0 0 0 17.859-3.095c.86-.173 1.275-1.152 1.097-1.929-.65-2.868-1.32-5.731-1.983-8.596Z" clip-rule="evenodd"></path><path fill="#fff" fill-rule="evenodd" d="M186.76 67.59c35.745 1.129 37.901 18.073 37.901 46.489 0 28.416-18.543 46.323-25.371 49.449-6.828 3.127-24.807 16.557-41.031 10.368-16.225-6.189-11.526-32.336-11.526-43.571s4.282-63.865 40.027-62.736Z" clip-rule="evenodd"></path><path fill="#000" fill-rule="evenodd" d="M201.261 154.196c-6.564 3.657-14.08 3.799-21.141 1.498-4.234-1.377-8.117-3.505-11.751-6.051-3.161-2.216-5.982-4.674-8.778-7.283-2.301-5.065-4.35-10.12-5.31-15.631-.86-4.946-.974-10.082.024-15.019a3098.8 3098.8 0 0 0 22.029-18.285 827.962 827.962 0 0 1 11.25-9.275c1.922-1.55 3.824-3.124 5.738-4.68l.945-.769c3.952 2.887 8.189 5.362 12.112 8.296a82.912 82.912 0 0 1 5.954 4.898 76.955 76.955 0 0 1 2.921 2.79c.869.873 1.708 2.124 2.941 2.454.168.044.327.054.477.032 1.648 14.401 2.819 29.951-4.242 43.03-3.08 5.705-7.447 10.805-13.169 13.995Zm-42.702 5.293c-.904-.827.443-2.164 1.343-1.341 5.653 5.168 13.045 7.908 20.51 9.176 1.205.205.691 2.031-.505 1.828-7.794-1.324-15.455-4.276-21.348-9.663Zm-6.784 7.929c-1.079-.577-.119-2.213.958-1.637 4.405 2.358 9.236 3.583 14.137 4.41 1.205.203.691 2.03-.505 1.828-5.067-.855-10.039-2.165-14.59-4.601Zm17.926-79.878c3.655-3.274 7.583-6.388 11.732-9.016 4.199-2.66 8.785-4.25 13.741-4.288-.347.277-.677.585-1.011.872-.936.799-1.87 1.602-2.803 2.404-1.867 1.604-3.738 3.206-5.581 4.837-3.629 3.214-7.269 6.411-10.891 9.632a596.988 596.988 0 0 0-20.436 19.025c.036-.159.074-.318.112-.476 2.206-9.197 8.207-16.783 15.137-22.99Zm28.651-12.903c.024-.072.041-.14.05-.207 9.511 1.238 17.455 8.222 20.082 17.418-.228.318-.354.695-.306 1.095l.071.607c-.326-.322-.66-.623-.945-.91a77.257 77.257 0 0 0-2.917-2.797 74.253 74.253 0 0 0-6.391-5.21c-3.882-2.815-8.086-5.403-12.715-6.754.304-.249.608-.498.915-.744.914-.742 1.762-1.354 2.156-2.498Zm17.052-9.834c-5.84-6.368-13.926-11.033-22.443-12.654-8.131-1.55-16.55-.528-24.233 2.484-16.076 6.304-28.76 20.167-34.7 36.232-3.462 9.359-4.598 19.619-3.557 29.526 1.035 9.862 4.011 20.047 9.426 28.437.496.768 1.04 1.505 1.61 2.218-.254 2.897-1.223 5.736-2.748 8.206-.082.132-.168.262-.254.392-1.561 1.167-3.181 2.262-4.762 3.392-1.37.979-2.726 1.984-4.014 3.069-1.216 1.024-2.629 2.164-3.452 3.547-.675 1.132-.95 2.671-.029 3.751 1.11 1.301 2.99.842 4.493.842.129 0 .258.003.386.004.451.284.916.54 1.367.778 4.553 2.408 9.122 4.79 13.696 7.16 9.11 4.724 18.182 9.637 27.48 13.986 4.308 2.017 8.92 3.78 13.746 3.773 4.527-.007 8.618-1.801 12.152-4.529 4.028-3.107 7.396-7.053 10.663-10.921a189.753 189.753 0 0 0 3.843-4.703c2.413-.803 4.807-1.038 6.958.512 1.727 1.245 4.002-.448 4.042-2.316a14.844 14.844 0 0 0-.085-1.962c-.432-3.982-2.384-7.584-4.584-10.926-1.201-1.827-2.467-3.622-3.74-5.399-.299-.42-.594-.839-.879-1.266 5.113-7.513 9.17-15.844 11.663-24.549 2.62-9.161 3.511-18.66 2.926-28.152-.897-14.548-4.897-29.944-14.971-40.932Z" clip-rule="evenodd"></path><path fill="#000" fill-rule="evenodd" d="M197.519 143.848a9.666 9.666 0 0 1-4.062-3.119c-.362-.482-.456-.99-.38-1.455.085-.523.395-.997.818-1.315.424-.319.955-.476 1.467-.396.446.07.889.313 1.241.818l.073.101a6.397 6.397 0 0 0 2.345 1.964 5.302 5.302 0 0 0 2.903.51c1.953-.221 3.299-1.275 4.73-2.706.177-.181.354-.367.533-.557a.84.84 0 0 1 .442-.34.958.958 0 0 1 .61.009.964.964 0 0 1 .48.363c.11.161.172.36.152.588-.131 1.484-.908 2.808-2.012 3.847-1.226 1.155-2.851 1.953-4.381 2.234-1.686.308-3.403.087-4.959-.546Zm5.754-22.886c1.793 1.088 4.526 3.625 2.597 6.322-2.271 2.378-5.541-.349-7.152-1.582-1.494-.955-3.173 1.503-1.786 2.619 11.642 8.602 16.367-7.074 7.248-8.638-1.004-.172-1.377.943-.907 1.279Zm-20.864-10.006c.199-2.455 3.944-3.012 4.317-.584.334 2.176-.059 4.175-1.041 6.134-.938 1.871-3.297.998-3.475-.706-.239-2.284.076-3.318.199-4.844Zm28.514-1.087c.523-.683 1.277-1.149 2.18-.885 2.823.823 1.991 4.822.999 6.768-.538 1.057-2.279 1.325-3.066.395-1.283-1.518-1.897-4.549-.266-6.044.044-.078.093-.156.153-.234Zm-25.278-9.654.446-.078c1.379-.238 3.094-.467 4.07.64.517.587.696 1.678 0 2.239-1.224.989-2.576.606-4.043.689a16.105 16.105 0 0 0-3.533.601c-2.554.728-4.634 2.058-6.815 3.518-.286.192-.578-.174-.442-.441 1.259-2.461 3.699-4.482 6.143-5.714 1.304-.658 2.731-1.204 4.174-1.454Zm22.705-1.102.342.07c3.713.774 8.538 2.322 10.297 5.962.067.515-.004.625-.062.697l-.019.024c-.047.062-.085.147-.309.217l-.188-.047c-.806-.211-1.444-.502-2.061-.803l-.67-.329c-.776-.38-1.56-.746-2.39-1.017a28.195 28.195 0 0 0-5.446-1.2 2.234 2.234 0 0 1-1.093-.414 1.64 1.64 0 0 1-.611-.929c-.13-.523-.093-.919.189-1.392.211-.355.514-.6.862-.742a2.026 2.026 0 0 1 1.159-.097Z" clip-rule="evenodd"></path></svg>