<svg xmlns="http://www.w3.org/2000/svg" width="436" height="635" fill="none" id="old-men-sitting-with-leg-up"><path fill="#fff" fill-rule="evenodd" d="M431.048 345.997c-1.958-.562-4.404-.706-6.546-.809-7.57-.444-15.29 3.159-22.713 4.784-3.25.802-6.69 1.746-10.168 2.45-3.087.418-6.278.732-9.487.932-2.594.077-5.612-.121-6.497 2.601-5.213 1.009-9.828 1.429-14.798.571.466-1.581.731-3.233.25-4.936.243-.404.573-.949.75-1.317h-.597c-8.723-3.486-18.155-5.867-26.923-9.479-11.445-4.118-28.3-12.075-41.524-17.508.896-4.902 1.229-9.882.848-14.724l.532-.429c.174-.951.446-2.09.937-2.952.624-1.653.639-3.908.886-5.776.517-3.654.862-9.154-.078-13.492-.411-5.883-4.383-10.417-8.665-14.055-5.258-5.192-10.522-10.257-15.655-15.649-28.409-28.915-30.655-65.334-75.127-76.402l-.022-.172c-.35-.39-.493-.7-.892-.083-1.469-.562-3.3-.515-4.529-1.464-2.183-1.989-3.732-4.284-4.745-7.007-.78-5.149-.228-13.084-4.746-16.379-5.018-3.001-31.679-5.138-33.978 1.424-1.427 1.338-2.076 3.037-2.522 5.118-1.485 2.805-2.422 5.916-3.919 8.764-3.181 6.389-5.243 4.974-10.86 6.434-.61-1.357-2.461-1.084-3.81-.887-16.334 2.292-36.25 8.547-43.243 23.876l.595-.076c-12.072 22.646-4.243 51.444-2.084 75.442 1.746 21.332-.251 42.765-4.997 62.662-5.826 21.109-6.16 44.72 5.398 63.827 1.175 2.187 2.606 5.278 5.137 3.906 1.387 1.047 2.945 1.77 5.097 2.4.593.429 1.208 1.151 1.829 1.46.029.041 1.029-.534 1.081-.55 1.89 2.693 105.652 11.692 116.42 13.089 9.486 1.142 22.021 4.058 29.752-2.774 6.389-1.823 13.074-6.568 18.18-11.279 3.098 44.862 4.812 136.737 7.576 137.377 1.21.41 2.843.9 4.212 1.292.008 3.223.249 6.885-.005 10.053-.424 3.579-1.5 7.805-1.987 11.566-2.091-.139-2.706 1.955-2.949 3.378-1.806 11.753-1.752 21.228-1.623 34.147 21.229 12.484 46.109 19.35 69.996 27.419 2.288 1.716 7.246-.141 9.888-.605 9.172-1.803 19.594-7.136 17.278-16.914-1.695-7.363-8.812-11.599-14.803-15.931-6.555-4.741-13.465-9.479-19.493-15.124-4.836-4.549-8.447-8.077-12.48-13.21-1.789-2.388-3.697-6.31-6.103-8.069 2.542-3.011-2.594-.189-4.539-.015a148.861 148.861 0 0 0-4.259-15.696l1.651.075c5.421-5.055 8.46-29.32 8.837-36.519 2.718-46.928 2.653-101.017-8.247-140.539 8.279 5.09 17.359 9.342 25.593 14.377 5.193 3.037 10.461 7.254 16.281 8.727.379 1.087 1.767 1.509 2.524.445 1.042.128 2.384-.303 2.499-.777 1.066-2.176 2.609-4.52 2.424-6.884l-1.43-3.311c3.203 1.3 6.685 4.035 10.104 4.286 6.905 23.022 20.51 10.125 33.602 1.165a5086.445 5086.445 0 0 0 24.859-17.476c7.055-5.603 20.828-10.92 14.076-22.018" clip-rule="evenodd"></path><path fill="#000" fill-rule="evenodd" d="M134.272 175.035c6.669-1.618 7.808-17.583 11.835-15.309 2.328 2.021-1.48 5.835-2.154 8.117l-.295.579c-1.367 2.658-2.912 5.306-5.604 6.839-1.731 1.819-6.904.033-6.144 2.931 2.657 8.733 16.754 14.781 25.062 17.5 12.914 4.844 33.805 3.205 36.839-13.032-7.084-1.295-12.32-14.057-7.955-19.371.149 5.162 1.561 10.488 5.618 13.985l.224.206c.714.65 1.639 1.427 2.56 1.282.899-1.249 2.643-.538 3.157.781 40.33 6.961 49.314 50.397 74.712 75.964 5.073 5.334 10.377 10.441 15.612 15.612 5.347 4.236 9.131 10.142 9.394 17.077.478 3.856.241 7.717-.27 11.58l-.035.349c-.237 2.394-.378 4.965-1.519 7.09-.197.721-.117 1.631-.741 2.139a58.17 58.17 0 0 1-.734 13.288l1.946.867c21.412 9.523 43.071 18.499 65.397 25.638 1.909-.346 1.753 1.869.829 2.876.244 1.185.27 2.417-.016 3.588 4.089.587 8.241.099 12.277-.645 1.277-2.808 4.669-2.658 7.291-2.737a128.9 128.9 0 0 0 9.746-.972c7.97-1.778 15.797-4.118 23.69-6.174 5.282-1.484 10.979-1.414 16.277-.047a22.703 22.703 0 0 1 2.434 3.225c4.843 7.5.07 14.372-6.691 18.311-10.847 7.678-21.698 15.347-32.594 22.954l-.791.564c-12.964 9.265-27.548 20.993-34.472-1.558-2.327-.272-4.366-1.832-6.534-2.752.583 2.706-1.158 5.44-2.359 7.76-.517 1.321-1.93 1.757-3.235 1.744-1.117 1.095-3.214.664-3.945-.634-5.926-1.694-10.822-5.649-16.068-8.722-7.458-4.523-15.282-8.38-22.848-12.712 12.568 51.963 9.494 106.089 6.15 158.983l-.024.477c-.414 7.723-2.188 11.376-8.602 16.109 1.117 3.404 2.117 6.821 2.879 10.322.269.813 1.508.048 1.518 1.163 2.279-.532 6.91.038 5.294 3.185 4.576 3.834 7.673 9.028 11.684 13.399 7.063 8.454 16.296 14.746 25.349 20.946 20.812 10.589 22.004 28.939-2.345 35.208l-.244.057c-3.353.806-7.391 2.648-10.642 1.097-4.862-.935-9.688-2.828-14.445-4.269-19.156-6.33-37.892-13.741-56.046-22.259-.658-.309-1.03-1.017-1.048-1.724.203-5.845-1.386-37.871 4.683-38.561 1.355-6.543 1.568-13.297 1.322-19.975-1.969-.619-3.96-1.215-5.999-1.602-1.98-.622-5.076-.762-6.402-2.364-.476-.171-.826-.597-.754-1.269a635.742 635.742 0 0 0 2.478-30.174c2.031-33.79 1.342-67.686-.972-101.439-4.766 4.116-10.198 7.72-16.245 9.637-3.338 3.339-8.69 4.056-13.246 4.46-5.859.362-11.615-.806-17.397-1.533-9.818-1.234-19.569-.142-29.316 1.069l-3.331.414c-23.863 2.614-49.653 3.154-71.894-7.03-4.188.371-9.386-4.148-11.999-7.167-1.153.711-2.287-.679-3.206-1.41-1.517-.46-3.238-1.121-4.615-2.086-3.492 1.141-5.376-3.386-6.703-5.848-21.057-36.005 2.394-71.845.63-110.026 1.068-29.934-12.606-61.119.61-89.829 2.673-12.149 18.31-20.545 30.079-23.633 3.792-.625 18.15-5.808 19.731-1.449.748-.982 2.026-1.055 3.172-1.06Zm174.665 389.823c-1.973.211-3.897.333-5.848.69-7.119 1.166-13.91 3.918-20.027 7.742-1.982 1.233-3.75 2.788-6.024 3.475-4.672 1.694-9.264-2.512-8.921-7.059-1.303 11.428-1.079 23.187-.403 34.672a601.66 601.66 0 0 0 55.983 22.01c4.284 1.793 9.357 2.367 13.291 4.791 6.709-.423 13.462-2.775 19.097-6.453 9.347-6.475 3.142-16.747-4.606-21.266-17.057-7.686-31.576-23.24-42.542-38.602Zm-37.371-16.901c-.357 3.388 2.221 8.665 1.857 15.417-.28 2.108-.938 4.317-.709 6.433 1.049 7.852 9.563-2.126 13.082-3.219 4.994-2.743 10.422-4.611 16.001-5.632-.034-1.811-1.235-2.533-1.393-4.322-.226-2.637-.214-5.169-.334-7.831-7.255 3.295-20.808.965-28.504-.846Zm39.091 16.389c-.126.084-.26.155-.397.22 1.009 1.219 1.882 2.572 3.078 3.62l-.509-.789c-.681-1.053-1.378-2.102-2.172-3.051ZM85.321 283.441c-.365 1.483-1.031 2.878-2.029 4.065 5.15 41.698-21.349 76.46 3.015 115.229.308.144.59.322.86.545.143-.095.286-.196.427-.296 11.42-20.177 27.675-37.582 40.627-56.89 2.486-4.847 6.579-9.725 8.146-15.324-26.029-10.263-36.426-25.237-51.046-47.329Zm342.546 63.248c-1.104.394-2.332.069-3.51.048-4.181-.089-8.267 1-12.267 2.101-11.632 3.177-23.325 5.989-35.242 7.87a9.819 9.819 0 0 0-.681.77c.207.35.239.786-.061 1.22-1.798 3.429-.345 7.628-1.651 11.298-1.892 7.431-6.926 15.813-14.437 18.45 2.505 2.384 4.3 5.452 6.881 7.752 6.342 4.341 13.327-2.129 18.505-5.598a4640.714 4640.714 0 0 1 29.654-20.736c4.44-3.675 14.262-8.306 16.387-13.174 1.361-3.733-1.116-7.369-3.578-10.001Zm-67.939 9.475c-4.244 8.641-6.693 17.828-9.144 27.106 2.549.7 4.897 1.796 7.402 2.533 3.529.793 8.511-6.016 10.28-8.719 1.824-3.022 3.101-6.344 3.693-9.823.5-3.408-.033-6.947 1.452-10.104-4.597.469-9.26.567-13.683-.993Zm-252.27-17.83c3.984-1.114-5.081 7.887-5.603 8.848-5.894 6.948-11.294 14.288-16.653 21.649l-1.625 2.235c-.156.226-1.231 1.814-.454 1.612.072-.019.105.075.048.114-4.956.875 21.897-33.846 24.287-34.458Zm97.145-4.248c.322-.97-1.208-1.384-1.53-.42l-1.016 3.054c-3.833 11.541-7.643 23.098-12.225 34.37-.383.945 1.149 1.357 1.53.422 4.983-12.266 9.055-24.87 13.241-37.426Zm44.559-4.041c-1.398 6.621-4.928 12.591-7.069 18.92 4.02-.885 7.117-4.626 9.46-7.843l.07-.107c1.106-1.699 2.391-4.353 4.901-3.154 3.811 2.21 1.081 10.05 1.01 13.766-.483 5.093-2.142 9.858-3.272 14.806 2.905-1.982 3.74-5.891 5.156-8.937l5.449-13.054c4.006-5.481 2.146 10.932 1.939 12.481-.326 3.402-1.761 6.825-1.198 10.252 2.259-2.428 3.682-5.479 4.878-8.574 1.659-4.305 3.173-8.665 4.751-12.998.546-1.388 2.615-.901 2.315.628-.102 4.918-.183 9.836-.261 14.754l-.059 3.688c-.011.699-.357 2.742.852 2.177 6.353-6.658 7.982-19.971 7.155-28.915-12.487.301-25.228-1.317-36.077-7.89Zm111.125 24.838c-.051.163-.11.325-.169.488.036.007.074.015.11.024.023-.172.044-.342.059-.512Zm-277.152 0c-1.385-1.021 21.897-30.871 20.388-22.254-6.495 7.674-14.07 14.399-20.388 22.254Zm205.614-65.959c-21.774-5.108-40.948 13.972-62.814 11.09.253 6.833.605 13.713.466 20.55 29.038 2.392 25.734 14.733 59.161 13.49 4.32-2.889 6.094-20.594 5.729-25.939.279-6.32-5.167-9.157-10.592-10.265-1.96 1.181-5.478-2.345-2.567-3.585a34.318 34.318 0 0 0 10.617-5.341ZM128.318 176.917c-7.746.763-15.418 2.871-22.538 6.129-26.317 7.586-30.112 38.349-26.947 61.661 1.31 17.727 6.374 35.066 17.018 49.481 28.338 43.156 75.275 36.323 119.734 30.615 1.602-1.114 4.318-.323 5.862-1.794a1.537 1.537 0 0 1-.431-.227c.742-.579 1.316-1.593 1.487-2.671l.321.032c.314-6.693.063-13.255.164-19.895-14.608-4.001-30.275-6.046-45.081-10.03-1.683 1.172-3.623-.177-5.267-.814a344.562 344.562 0 0 0-12.892-5.166l-1.083-.408a352.629 352.629 0 0 1-8.441-3.27l-1.048-.426c-1.602-.654-5.648-3.076-7.396-1.564l.141.304c1.037 2.258 4.607 10.613.218 8.96-3.564-2.499-5.411-19.924-8.941-20.078-1.214 3.244-2.084 6.611-2.282 10.079-.072.78-1.099 1.438-1.716.709-4.187-5.505 2.137-11.502 2.306-17.313.399-6.757-2.595-13.08-4.087-19.547l-.091-.446c-.875-4.196-2.236-9.283-1.875-13.047l.869 3.267c.871 3.269 1.764 6.538 2.788 9.761 2.541 8.049 7.13 16.341 4.58 24.954 5.116.17 5.981 8.233 7.902 11.916 3.109-4.029 24.987 5.631 29.979 7.181l.963-1.091c15.635-17.704 26.922-29.686 51.155-15.681-4.187-13.486-4.591-27.81-5.305-41.814.245-2.665-1.297-9.692.877-11.147.378.055.745.169 1.091.321v1.38c.01 2.674.135 7.108 1.258 8.115l.515 5.295c1.349 13.768 2.88 27.525 6.997 40.792 9.882 5.518 18.899 12.426 27.382 19.879l.967-.352c10.481-3.832 23.093-8.745 33.81-3.962-.179-2.7-1.223-5.284-2.679-7.568-2.428-.601-4.017-3.158-5.754-4.861-5.508-5.909-11.163-11.683-16.545-17.712-22.964-24.671-32.734-65.182-68.796-74.752-2.384 19.936-27.923 23.117-43.313 16.294l-.584-.223c-9.567-3.687-20.378-9.253-23.738-19.392l-.14-.294c-.345-.715-.757-1.444-1.414-1.58Zm5.676 113.448c.028-.03.082.011.058.045-4.483 5.619-8.132 13.284-3.676 19.996.824 1.511-1.101 2.963-2.333 1.811-6.185-7.015.677-16.522 5.951-21.852Zm155.998 1.27a39.47 39.47 0 0 1-7.91 4.37c.008.322-.149.667-.291.92 3.687.292 7.526 1.243 10.114 3.928.126-.982.249-1.967.343-2.951.238-2.534-.196-4.802-2.256-6.267Zm-169.546-24.84.029-.135c.02-.154.253-.164.246 0-.085 2.008-1.549 3.437-2.788 4.868l-5.52 6.364c-3.076 3.697-7.609 7.413-6.589 12.769.019 1.902-2.368 2.31-3.337.911-3.851-7.336 8.273-13.577 12.36-18.31 1.919-2.048 4.943-3.555 5.599-6.467Zm57.727 22.023c.057.091.098.19.12.292.646.068 1.289.142 1.932.22l-2.052-.512Zm-96.437-17.156c.115.766.223 1.534.326 2.304l.102.769.016-.068c.052-.199.152-.373.281-.511l.045-.045a95.486 95.486 0 0 1-.77-2.449Zm177.006-7.934c1.545-.165-5.455 4.862-5.842 5.484-.564.49-1.224-.381-.622-.805 2.175-1.533 4.319-3.106 6.464-4.679Zm-13.619-14.787c1.075-.44 1.805 1.348.785 1.846-3.714 1.815-7.641 3.098-11.063 5.485-.15.105-.338-.139-.196-.251l.411-.325c3.152-2.5 6.301-5.217 10.063-6.755ZM83.019 226.338c1.038 4.882 6.654 6.485 11.012 7.785l1.362.518c3.849 1.471 7.836 3.126 10.605 6.235 1.085 3.506-6.659-2.602-7.74-2.911-5.288-3.275-14.843-3.831-15.24-11.627Zm114.647-45.58c.029.248.043.502.051.755.325 0 .649.003.974.013a5.237 5.237 0 0 1-1.025-.768Z" clip-rule="evenodd"></path><path fill="#fff" fill-rule="evenodd" d="M207.527 93.17c-8.822-23.176-24.724-40.145-51.533-29.487-.769-.523-1.773-.663-2.734-.051-14.604 9.157-25.121 23.838-29.678 40.392-2.774.526-5.469 1.445-7.877 2.951-5.231 3.273-8.751 8.482-12.051 13.555-.992 1.526-.073 4.051 1.791 4.397.81.151 1.613.24 2.411.264-.194.704-.45 1.385-.776 2.009-1.179 2.26 1.049 4.659 3.137 4.041.232.122.475.223.726.299.029 1.28.687 2.993 1.991 3.252 2.108.452 4.91-1.16 4.413-3.514a6.39 6.39 0 0 0 1.89.048c.069 1.226.048 2.506.217 3.637.554 5.33 5.888 8.911 10.975 7.289.311 1.661.678 3.995 2.316 4.896 1.915 5.365 5.223 11.488 10.639 13.933-.482 1.234-.22 2.735 1.232 3.56 9.915 5.645 21.816 7.555 33.026 5.456 4.48-.266 8.845-1.277 13.035-3.431 3.055-1.57 5.864-3.565 8.606-5.621 2.743-2.056 5.676-4.059 7.866-6.73 2.378-2.9 3.485-6.312 4.204-9.945 3.292-16.486 2.155-32.673-3.826-48.378-7.402-19.44 7.401 16.619 0-2.822Z" clip-rule="evenodd"></path><path fill="#000" fill-rule="evenodd" d="M164.877 59.166c4.515-.318 9.112.442 13.412 1.802 6.857 2.167 13.155 5.992 18.328 10.972 5.333 5.132 9.277 11.46 11.675 18.448 2.891 8.427 3.324 17.426 4.138 26.224.411 4.445 1.089 8.822 1.793 13.224l.112.696c.688 4.289 1.075 8.626.124 12.908-1.58 7.117-6.317 13.158-11.941 17.622-11.551 9.17-29.534 14.761-42.984 6.323-2.081-1.306-.109-4.644 1.922-3.284 1.43.958 2.944 1.797 4.568 2.377 6.786 2.422 14.239 1.559 20.946-.694 6.609-2.219 12.951-5.97 17.828-10.975 5.122-5.257 7.961-11.751 7.551-19.14-.244-4.396-1.247-8.711-1.804-13.071-.493-3.862-.789-7.745-1.13-11.623l-.125-1.395c-.722-7.9-1.76-16.017-5.36-23.188-3.028-6.033-7.461-11.4-12.792-15.546-5.582-4.34-12.248-7.374-19.243-8.507-8.225-1.33-16.099 1.09-22.961 5.596-6.085 3.997-11.317 9.337-15.329 15.397-1.945 2.938-3.602 6.076-5.033 9.294-1.349 3.031-2.279 6.21-3.363 9.334.892-.026 1.8.008 2.721.109 4.725.523 9.128 2.969 11.93 6.825 3.426 4.711 2.5 10.495 3.838 15.854a.962.962 0 0 1-.43 1.053c-2.028 1.309-4.743 1.353-6.706-.122-1.704-1.279-2.504-3.592-1.814-5.613.09-.263.474-.217.485.066.13 3.439 3.325 6.088 6.457 4.451-1.343-4.621-.636-9.781-3.384-13.955-4.864-7.387-14.93-7.692-21.999-3.528-3.721 2.191-6.666 5.486-8.859 9.171l-.632 1.07c-.84 1.43-1.73 3.047-1.905 4.621-.1.908.235 1.762 1.279 1.304.844-.37 1.498-1.233 2-1.976.855-1.266 2.82-.172 2.114 1.176l-.024.044c-1.028 1.819-1.661 3.824-1.778 5.912l-.029.579c-.02.421-.033 1.02.056 1.042.107.026.851-.831.975-.95.597-.572 1.211-1.04 2.042-1.193 1.092-.199 2.194 1.15 1.246 2.034l-.04.036c-.846.734-.808 2.199.127 2.886 1.319.969 2.942-.613 3.134-1.916l.006-.048c.17-1.407 2.127-1.457 2.234 0 .23 3.163-3.54 5.814-6.409 4.218-1.135-.631-1.856-1.785-2.082-3.023a3.068 3.068 0 0 1-1.165.36c-1.345.119-2.301-.825-2.518-2.092-.254-1.476-.103-3.056.286-4.589a3 3 0 0 1-2.27-.336c-2.336-1.346-1.665-4.34-.783-6.361 3.765-8.628 11.565-16.456 21.23-17.077.052-1.523.259-2.962.597-4.486 3.306-14.908 14.014-28.713 27.955-35.166 3.725-1.724 7.676-2.884 11.783-3.174Zm-36.559 59.555.132-.03c1.506-.324 5.47-.705 4.992 1.826-.022.119-.196.104-.226 0-.468-1.591-3.647-.319-4.575.064a13.42 13.42 0 0 0-3.586 2.212c-2.287 1.982-3.82 4.776-4.054 7.81-.231 3.009.644 6.26 2.818 8.437 1.065 1.067 2.426 1.791 3.954 1.844 1.373.048 2.89-1.019 4.156-.394.25.123.448.461.425.74a1.845 1.845 0 0 1-.63 1.256c2.121 3.859 3.857 7.944 6.562 11.454 1.358 1.76 2.896 3.391 4.638 4.779.828.66 1.728 1.239 2.657 1.748 1.088.597 2.029.971 2.805 1.982.662.863 0 2.531-1.091 2.68-2.57.349-5.068-1.726-6.955-3.28-1.885-1.553-3.514-3.468-4.86-5.501-2.585-3.903-4.354-8.507-5.061-13.165-.821.26-1.745.339-2.441.34-1.85.005-3.616-.66-5.07-1.783-5.323-4.111-5.915-12.551-2.158-17.873 1.797-2.547 4.528-4.429 7.568-5.146Zm.033 9.789c1.234-.109 2.467.086 3.627.506l.479.173c1.01.369 2.085.803 2.815 1.559 1.114 1.156.004 3.158-1.583 2.716-1.756-.49-3.183-1.967-4.938-2.586-1.569-.553-3.346-.475-4.738.478-.184.126-.425-.122-.305-.305 1.065-1.619 2.746-2.375 4.643-2.541Z" clip-rule="evenodd"></path><path fill="#000" fill-rule="evenodd" d="M184.141 151.974a10.205 10.205 0 0 1-4.29-3.295c-.382-.509-.481-1.046-.401-1.537.09-.553.417-1.053.864-1.389.448-.337 1.008-.503 1.549-.418.471.073.939.33 1.31.864l.077.107a6.762 6.762 0 0 0 2.476 2.074 5.583 5.583 0 0 0 3.065.539c2.062-.233 3.483-1.347 4.994-2.859.188-.191.375-.388.563-.588a.887.887 0 0 1 .467-.359 1.024 1.024 0 0 1 1.152.393c.115.17.181.38.16.621-.139 1.567-.959 2.966-2.125 4.064-1.294 1.22-3.01 2.064-4.626 2.36-1.78.326-3.593.092-5.235-.577Zm6.075-24.178c1.893 1.149 4.779 3.829 2.742 6.679-2.398 2.512-5.851-.369-7.552-1.671-1.577-1.01-3.35 1.587-1.886 2.766 12.293 9.088 17.282-7.474 7.654-9.125-1.061-.182-1.454.995-.958 1.351Zm-22.03-10.572c.21-2.593 4.165-3.182 4.558-.616.353 2.299-.062 4.41-1.099 6.48-.991 1.977-3.481 1.054-3.669-.746-.253-2.413.08-3.505.21-5.118Zm30.107-1.148c.552-.721 1.348-1.214 2.302-.935 2.98.869 2.102 5.094 1.055 7.151-.569 1.116-2.407 1.4-3.238.416-1.354-1.603-2.002-4.806-.281-6.385.047-.082.099-.164.162-.247Zm-26.69-10.199.471-.083c1.456-.251 3.267-.493 4.297.676.546.62.735 1.773 0 2.366-1.292 1.044-2.72.64-4.268.728a16.987 16.987 0 0 0-3.731.635c-2.697.769-4.893 2.174-7.196 3.717-.302.202-.611-.184-.467-.466 1.33-2.6 3.906-4.736 6.486-6.038 1.377-.694 2.884-1.271 4.408-1.535Zm23.974-1.165.36.074c3.921.818 9.016 2.453 10.873 6.299.07.544-.004.661-.065.737l-.02.025c-.051.065-.091.155-.327.229-.065-.016-.131-.032-.198-.05-.851-.223-1.525-.529-2.177-.848l-.707-.348c-.82-.401-1.647-.788-2.524-1.074a29.785 29.785 0 0 0-5.75-1.268c-.424-.049-.832-.192-1.154-.437a1.735 1.735 0 0 1-.645-.981c-.138-.553-.098-.972.199-1.471.224-.375.543-.635.911-.784.374-.152.8-.188 1.224-.103Z" clip-rule="evenodd"></path></svg>