<svg xmlns="http://www.w3.org/2000/svg" width="463" height="661" fill="none" id="women-on-wheel-chair"><path fill="#fff" fill-rule="evenodd" d="M359.473 547.531c-5.416-.988-7.366 5.299-7.599 9.274-2.183-.973-4.456-2.079-6.431-3.353-3.246-2.074-6.753-5.654-10.587-5.559l-.175-.972c-.196-1.705-3.672-.57-4.61.03-1.503-.279-3.153-1.788-4.161-3.168 4.057-1.498 5.835-1.557 5.194-6.756-.001-.805-.201-1.554.021-2.271-4.844-21.545-5.791-43.099-6.4-65.059l2.488-.5c7.878 22.001 15.365 45.089 22.082 68.611.166 1.057.771 1.069 1.359.498 2.038.108 4.008.02 6.085-.28l-.029-.096c.624.005 1.245-.027 1.818-.066.489 3.155 1.055 6.408.945 9.667Zm-3.266-12.005c.137-.067 1.702-.756 1.879-.836l.038.388c-.673.262-1.35.514-2.033.744l-.063-.214.179-.082Zm-66.83 47.119c-2.64.636-5.437 1.439-8.033 2.193l1.019-2.456c-5.855-15.574-10.329-32.023-13.585-48.101-2.306-10.467-4.699-21.29-7.896-31.663-4.038-16.289-12.751-33.05-31.162-34.446l-.31-.53-.363-.338c-.898-11.424-2.114-22.808-3.292-33.74 9.854 2.702 18.339 1.823 27.757 1.75 3.051-.422 7.113.462 9.547-.927l1.609-1.631c10.692 42.217 13.475 85.724 17.293 128.475.13.971.87 1.299 1.647.897.898.983 2.767.605 4.047.748-1.074 6.407.19 14.044 3.307 19.381l-1.585.388Zm-25.097-3.603c-6.588-5.537-14.393-8.283-22.544-7.972-2.861-4.237-6.904-9.315-11.444-11.228-2.129-7.106-1.867-14.9-1.417-21.593 1.052-6.838-1.304-7.634-6.885-7.135 2.399-2.894 2.185-3.592 1.698-7.391 1.593.248 6.414 3.394 7.075 1.17.8-4.333 1.344-8.099 1.662-11.512.169-2.915-1.897-5.981-1.642-8.948-.758-7.63.02-16.168-3.498-23.197 14.254 1.904 17.727 17.439 21.415 28.885 7.59 23.574 12.894 47.644 18.543 71.41l-2.963-2.489Zm-43.906-53.967c-.338.758-.387 1.482-.505 2.22-6.705-1.23-5.512 8.608-6.139 13.991-1.26-.419-2.148-.549-3.466-.29-.193-1.773.963-2.561-3.09-2.756-18.888.351-26.07 20.081-32.568 35.176-3.016 7.26-7.3 8.39-13.666 8.264-4.27.082-8.638 1.238-13.001 1.099 15.864-31.227 21.635-76.078 15.194-114.981h.004a229.072 229.072 0 0 0-1.338-7.508c13.598.143 29.417.469 42.511-.095 1.726 1.582 3.852 2.288 6.022 2.304.01 1.727.196 3.626.359 5.348-12.238-.304-25.817-.117-38.213.064 12.396.179 26.039.398 38.23.047-.02 3.3.312 6.298 3.249 7.894 1.122 8.347-.328 17.068.686 26.776.814 6.603.144 19.246 6.18 21.344l-.449 1.103Zm-86.164 50.753-.472.828c-.999-.341-1.613-.266-2.586.489-7.081 3.823-17.259.274-25.002.021 1.472-4.83 1.529-12.53-5.178-12.627 2.225-21.168.726-42.166 1.069-63.317 12.213-2.324 11.803-3.579-.059-5.754-.075-11.831-.164-23.8-.156-35.741-.002-5.746-.055-11.35-.581-16.908 1.105-2.282.859-4.619 1.429-7.029 2.407-1.346 6.578.22 8.075-2.1 6.48-.095 13.08-.156 19.624-.503.594.018.815-.533 1.072-.934 1.14-.3 3.061.385 4.01-.1l1.279-1.65c5.331 10.868 9.467 23.674 11.909 36.64-7.702.084-16.519.061-24.465.022 7.737.572 16.089.916 24.647 1.036 6.639 32.972 1.884 79.233-14.615 107.627Zm-10.656 15.638c-16.044 20.182-42.246 26.909-63.763 10.685-57.413-43.606-54.837-191.41 20.568-211.855-2.047 7.727-9.148 39.8 3.689 40.715l-.04-.104.654-.361c2.695.931 6.487-.362 7.37 3.376.035.007 1.45.13 1.533.139-.918 4.644-.651 9.459-.925 14.177-1.084-.413-2.433-.657-3.608-.56-4.426-.206-4.315-5.036-4.142-8.396.164-1.644-.334-3.526-.252-5.069.044-1.071-.028-1.907-.435-2.794-1.361 4.348-2.648 10.048-1.84 14.474 1.19 4.132 6.46 6.106 10.273 4.081-.166 14.876-.212 29.637-.295 44.384-2.506-1.314-4.792-.481-7.383.22-3.27.688-7.15-.286-10.429.504-.378-1.618-1.905-3.597-3.513-2.291-2.045.019-3.17 1.913-4.185 6.055-.633 3.283-.263 7.664 2.86 9.242 1.765.95 3.53.275 4.4-1.669.493.197 1.28.799 1.84.606a678.606 678.606 0 0 1 16.363-3.735c.288 20.831-.637 41.509 1.086 62.397-7.875.664-22.879-1.442-26.31 5.476-3.151 1.359-5.415 4.479-5.407 7.621-.103 5.092 5.559 6.804 9.983 6.861 17.905 1.355 35.641 3.77 53.683 3.735l-1.775 2.086Zm32.452-158.812c11.388 1.553 22.825 1.542 34.237 2.048-3.724 25.254 1.483 10.582 13.06 24.776-13.229-.016-29.203-.174-41.642.135-1.933-9.516-4.543-18.602-7.786-27.279l2.131.32Zm88.165-128.145c5.021 7.002 11.618 13.117 19.021 17.299-6.394.471-12.904.902-19.208 1.784-.705-6.063-1.417-12.128-2.131-18.19l2.318-.893ZM461.66 569.5c-.595-5.962-7.35-8.161-12.291-6.516-2.774-7.361-12.257-6.467-18.359-9.711-12.25-5.923-24.787-17.509-38.966-12.95-1.271-3.487-2.695-6.834-4.226-9.758.599.304 1.368.272 1.909-.265l.004.004c.528-.603 1.039-1.278 1.107-2.021 1.84-2.063 2.611-5.323 3.085-7.753-2.246-7.672-4.974-15.021-7.403-22.612-9.429-28.944-16.062-55.836-23.176-83.516-7.912-20.584-10.035-74.594-38.69-74.697-.093-1.439-.142-3.097-.601-4.406-.819 1.121-1.159 2.778-1.271 4.201-12.265-.195-22.866 2.081-30.956 5.587-15.492-.686-29.07.236-46.892 2.339 2.159-3.72.716-7.91.512-12.012 25.84 1.221 52.104-1.159 77.822-2.581 4.15-.362 8.554-.134 12.56-1.176 4.346-1.014 8.472-6.448 4.04-10.585-2.999-1.86-6.726-.852-10.012-1.017-16.656-.001-33.7.325-49.734.912 19.742-10.029 29.702-30.974 41.508-48.838 5.997-9.759 10.474-17.971 14.097-25.853.621-1.311.794-2.731.422-3.453-.139-.722-2.378-.802-2.984-.98 16.419-25.623 41.634-14.341 55.117-29.188-2.555.116-5.108.235-7.66.358l-.588-2.446c4.818-2.168 9.383-5.533 14.37-10.598a.267.267 0 0 0-.012-.033c-8.268 2.582-15.975 4.462-23.558 5.747l-.915-2.335c6.815-4.431 12.877-10.458 17.533-17.431-8.686 3.833-16.856 9.277-25.87 12.765l-1.356-2.121c5.138-4.907 16.656-12.262 13.38-19.13-12.804 6.153-24.487 14.117-36.818 21.069-.011-5.641 3.962-14.511 1.55-19.214-2.546-3.138-3.748-.468-5.035 2.042l-6.666 11.189c-4.917 8.738-11.824 17.375-11.666 27.706-4.274-2.05-7.635 5.392-10.412 9.456-7.806 13.246-34.223 34.041-40.056 36.875-23.751-21.49-20.211-57.882-45.457-78.178-8.097-8.249-14.081-9.204-23.626-12.236-2.269-.544-4.835-2.464-6.866-.622-3.013-2.495-5.945-10.55-7.188-13.991-.769-3.329-2.051-11.523-3.847-13.06-1.795-1.536-31.034-2.816-33.599-2.048-2.565.768-1.539 6.914-1.539 6.914l-2.7 11.143-.232-.065c-.042.016-.403.294-.449.325-1.922-.014-3.769-.921-5.614-.92-1.946.041-3.521 1.366-5.013 2.501-2.665 2.012-5.421 4.092-8.661 5.348-37.577 11.986-42.541 30.026-53.784 64.687-9.252.261-17.04-.893-25.093-1.341-2.834.36-1.913 5.857-1.827 8.998-.267 7.728 5.519 6.932 11.258 6.863 3.795.045 7.615.423 11.37-.022-4.045 18.64-12.179 47.781-3.278 65.172 7.208 13.627 13.325 16.214 19.158 16.612 1.494 13.044.006 24.725.277 37.339-85.995 23.139-89.953 157.45-51.514 222.847 30.865 53.437 88.913 50.509 117.684-2.674 6.958 3.787 20.753 3.526 29.94 2.696 7.23-.424 9.602-3.486 12.184-10.187 2.886-6.518 5.629-12.95 8.566-19.464 2.804-6.891 8.405-14.811 18.513-14.501-.046 4.06-.801 8.636 1.95 11.86-10.253 3.48-4.09 19.695-1.111 27.27-14.08 19.178-9.336 52.791 10.36 66.702 32.53 21.802 63.931-19.433 54.429-51.024 1.557.735 4.448 1.754 5.692.148.507-.374-.193-2.035-.318-2.576 21.818-1.279 43.222-3.841 64.855-5.867-.735 20.063 19.194 39.838 39.192 39.393 26.096 1.208 41.732-33.126 33.838-55.359 9.98-.278 20.11-1.114 30.515-2.523 5.689-.567 9.315-1.912 9.092-7.214Z" clip-rule="evenodd"></path><path fill="#000" fill-rule="evenodd" d="M141.453 154.357c-.619.203-.55-1.121.315-.988.717.112.982 1.074 1.113 1.684l.02.099c1.199 5.603-.182 11.523-2.998 16.442-.706 1.15-1.439 2.728-2.839 3.037.664 4.739 1.575 9.44 2.703 14.091 4.024 1.408 7.813 3.495 11.829 4.94 7.73 2.744 16.001 3.478 24.135 4.061 5.595.304 11.351.058 16.666-1.857 2.248-.613 4.154-2.618 6.512-2.612a163.254 163.254 0 0 0-5.278-12.739c-6.046-.002-10.613-5.859-12.409-11.065-.654-2.074-.844-4.248-1.259-6.373l-.154-.794c-.136-.707-.259-1.419-.313-2.136-.018-.266.377-2.604.285-2.937-.01.097-.137.02-.195.015-.159-.196-.021-.591.295-.576.51-.015.764 1.094.88 1.396 2.452 5.026 3.386 11.202 7.764 14.976 2.186-1.377 4.877.426 7.099.979l.643.203c10.386 3.267 15.193 4.059 23.535 12.358 14.25 11.1 18.449 25.267 24.058 41.587l.331.887c5.393 14.368 9.746 23.281 20.477 35.051 3.894-1.814 28.088-21.134 36.394-32.485l.247-.342c2.392-3.253 7.838-14.64 12.296-13.558.4-10.012 7.069-18.298 11.772-26.731l6.676-11.205c.644-1.081 1.259-2.571 2.173-3.45 1.551-1.492 4.129-.12 5.058 1.393 2.554 4.297-.661 12.511-1.134 17.531 11.446-6.62 22.589-13.861 34.419-19.792.995-.478 2.237-.112 2.553 1.037 1.999 8.254-8.903 15.163-14.166 20.101 8.611-3.455 16.689-8.373 25.023-12.491l.556-.273c1.131-.587 2.662.66 1.862 1.859-4.717 7.075-10.813 13.208-17.926 17.832 7.936-1.344 15.743-3.316 23.45-5.725 1.255-.392 2.15 1.27 1.26 2.161l-.42.423c-4.213 4.223-8.863 7.988-14.349 10.454 2.563-.123 5.125-.243 7.69-.358 1.272-.056 1.695 1.501.972 2.343-2.85 3.311-6.684 5.459-10.777 6.871-17.126 4.599-31.505 4.205-43.058 20.351 2.891.52 2.469 3.741 1.556 5.76l-.056.122c-4.125 8.976-9.008 17.586-14.177 25.999-11.073 16.425-20.167 36.164-37.694 46.698 11.317-.384 22.639-.606 33.964-.699 3.137-.026 6.274-.041 9.412-.045l2.353-.001c3.11 0 7.217-.653 9.899 1.278 5.155 4.14 1.134 11.772-4.575 12.862-3.597.965-7.483.82-11.172 1.101.703 1.357.876 3.028.966 4.482 12.964.806 20.532 10.963 24.066 22.574 7.088 22.235 12.518 44.966 18.395 67.543l.666 2.618c5.671 22.255 11.634 44.445 18.749 66.289 2.422 7.565 5.186 15.026 7.415 22.649a2.058 2.058 0 0 1-.288 1.792c-.421 2.976-2.324 7.973-5.528 8.762 1.314 2.58 2.496 5.375 3.5 8.062 14.456-3.841 26.595 7.501 38.747 13.341 6.119 3.199 15.04 2.303 18.482 9.362 5.548-1.386 12.307 1.698 12.87 7.895.49 6.38-4.945 8.224-10.277 8.606-9.589 1.302-19.234 2.154-28.906 2.471 5.463 18.394-3.591 45.171-22.262 52.734-24.559 10.349-53.089-10.835-53.717-36.589-20.627 1.951-41.256 4.383-61.928 5.644.856 2.94-3.047 4.16-5.288 3.298 5.464 24.783-10.669 56.249-37.527 56.148-34.609-.233-48.598-48.32-30.471-74.052l-.173-.446c-2.884-7.443-8.308-22.759.855-27.169-1.934-2.951-1.449-6.663-1.385-9.999-8.489.384-12.876 6.479-16.03 13.674-2.907 6.443-5.677 12.947-8.544 19.41-2.699 7.006-5.363 10.54-13.306 11.006l-.813.06c-8.863.642-20.645 1.171-28.643-2.386-18.982 34.679-58.809 55.249-93.28 30.389-70.763-48.778-68.156-231.579 25.279-253.23.038-3.485.088-6.968.149-10.453-.2-2.22-.157-4.435.044-6.685l.043-.921c.256-5.681.316-11.422-.385-17.068-11.339-.919-18.206-15.408-19.35-17.601-8.74-16.756-.656-47.762 2.982-63.961-3.529.28-6.754-.15-10.203-.109l-1.197.02c-6.41.099-10.716-.169-10.878-8.154.008-3.243-1.436-9.254 2.834-10.261 1.929-.386 4.206.297 6.138.487 6.097.493 12.202.867 18.317.829 5.306-15.187 9.46-31.439 19.565-44.296 8.583-10.879 22.313-15.163 34.655-20.304 3.35-1.295 6.179-3.539 9.065-5.708l.199-.155c1.433-1.099 2.991-2.027 4.852-2.077 1.81-.049 3.493.771 5.263.89.312-.232.719-.378 1.071-.279.943-2.606 1.641-5.313 1.985-8.058l-.03-.126c-.053-.209-.073-.157-.058.162.083 0 .095.115.019.14Zm101.43 419.624c-3.899 0-7.641.827-11.121 2.338-.809 4.484 2.884 10.773 4.125 15.289.05 1.866.389 3.767.826 5.612.31 5.384 2.591 10.321 3.649 15.417.196.968 1.68.559 1.484-.408-.928-4.57-2.167-9.066-3.234-13.603.501.301 1.35-.106 1.165-.852-.395-1.605-.395-3.228-.332-4.856 26.397 3.331 24.854 47.163-2.076 47.768-17.476.437-27.215-23.496-17.336-37.826-1.622-3.482-3.379-6.903-5.04-10.394-14.151 23.645.669 63.939 27.89 63.2 43.896-1.238 43.915-80.435 0-81.685Zm158.484 5.152c5.211 9.704 4.655 22.741-1.954 31.685-7.475 10.167-23.788 8.977-31.111-.78-2.895-3.478-5.125-7.738-5.255-12.337-.011-1.014.646-2.809-.239-3.606l-5.66.605c-2.83.302-5.66.6-8.49.891 8.201 21.892 28.356 41.717 52.964 30.754 15.25-8.404 20.901-28.475 18.676-44.853-.125-.784.159-1.427.621-1.859-6.517.15-13.062.182-19.552-.5ZM134.033 412.988C90.537 344.269 33.241 388.76 18.574 451.83 7.56 495.256 11.47 548.272 34.466 586.712c27.007 45.778 72.586 45.724 99.566.001 20.419-34.125 25.79-79.753 19.028-119.948.002.36-.124.721-.385 1.01 7.948 48.251-.995 107.954-39.3 137.271-28.277 20.846-61.34 3.802-77.215-24.755C5.438 528.513 7.804 433.572 58.2 394.653c14.387-10.243 31.283-12.188 46.865-4.865.159-.968.759.099.993.481 26.809 14.218 40.059 44.756 46.187 75.153.369.205.616.519.734.867a186.455 186.455 0 0 0-3.056-14.459c-3.747-14.586-9.094-27.653-15.89-38.842Zm98.543 202.246c-2.32-1.479-1.216 2.957-.41 3.782.579.815 1.728.126 1.329-.776-.495-.722.385-2.921-.919-3.006ZM78.414 391.222C13.345 409.481 9.085 529.485 40.563 577.66c14.49 25.947 43.93 42.286 69.852 23.206 4.247-2.999 8.261-6.725 12.014-11.137-16.666-.136-33.3-2.366-49.93-3.621l-.377-.033c-2.518-.219-5.101-.338-7.422-1.424-7.034-3.442-5.117-12.277 1.275-15.361 3.5-6.892 18.961-5.355 25.876-5.721-1.552-19.813-.745-39.743-.97-59.601a649.733 649.733 0 0 0-14.796 3.393 2.46 2.46 0 0 1-1.677-.19c-1.201 1.894-3.557 2.107-5.445 1.15-3.82-1.929-4.255-6.945-3.535-10.65l.076-.321c.63-2.619 1.888-6.521 4.96-6.723 1.936-1.205 4.043.218 4.75 2.109 3.242-.54 6.181.313 9.343-.322 2.095-.423 4.208-1.494 6.363-.756.075-13.601.122-27.205.267-40.806-4.064 1.36-9.023-1.452-10.203-5.511-.798-2.701-.092-5.8.282-8.512l.07-.507c.241-1.7.542-3.478 1.12-5.126-9.151-1.262-7.279-20.417-6.584-27.184.852-4.438 1.383-8.294 2.542-12.79Zm151.114 77.227c-4.065-.037-6.969 4.357-4.622 7.856 4.721 5.325 11.545.525 18.862 14.88 12.14 28.727 17.741 59.801 25.296 89.948 3.799 3.946 6.107 8.962 8.897 13.648 1.03 1.763 1.344 4.25 3.214 5.365.361.169.651.197.936.154-3.88-2.148-3.067-12.756-2.267-16.614l-.035.002c-.352.023-1.641.305-1.05-.304l.628-.202.629-.2.043-.156c-10.915-25.313-13.288-53.573-21.11-79.934l-.698-2.339c-2.703-9.01-5.823-18.433-12.662-25.122a1.314 1.314 0 0 1-.772-.317l-.246-.215c-4.037-3.488-8.997-6.304-14.52-5.795-.221.016-.257-.322-.052-.376.13-.035.26-.06.389-.09a22.697 22.697 0 0 1-.86-.189Zm-19.414 71.537c-1.164.463-2.349.138-3.665.169a16.071 16.071 0 0 0-4.039.638c-21.741 6.282-18.535 38.918-34.366 42.704-3.957.768-7.94.176-11.908-.356-2.532.09-4.858.013-7.282-.51a134.882 134.882 0 0 1-3.573 6.689c2.885-.451 5.824-.334 8.739-.385 6.856.108 13.711-.172 20.518-1.026 2.424-.274 4.66-.948 6.094-3.048 3.237-5.464 5.453-11.538 8.364-17.186l.383-.863c4.167-9.361 9.679-20.594 21.402-20.622.067-.676.595-1.218 1.195-1.385.067-.973.134-1.946.206-2.922-.678-.649-1.177-1.486-2.068-1.897ZM65.411 571.843c-1.27 2.131-1.138 5.87 1.136 7.346 1.542.876 3.74.779 5.448.902l2.942.216c.98.072 1.961.145 2.941.222l1.47.118a3804.728 3804.728 0 0 1 42.04 3.608l.063-.024c.195-.07.501-.168.501-.168l.218-.101c.311-.149-.066-.013-.103.005l-.002.001c1.562-1.004 3.244.146 3.614 1.669a91.793 91.793 0 0 0 4.07-5.927c-1.846.539-3.806.619-5.714.499-1.312 1.489-3.669.942-5.422.909-12.39-.989-24.747-2.417-37.098-3.8-3.136-.367-6.276-.735-9.412-1.104l-.709-.064c-2.773-.262-6.109-.794-5.983-4.307Zm269.709-24.255c-1.3 1.414-3.79 1.798-5.45 2.623-1.916.955-3.744 2.112-5.386 3.487-7.435 6.878-15.002 17.819-26.641 12.985-2.445-.945-4.724-2.45-6.253-4.607-.68.335-1.468-.307-2.158-.394.597 3.209.848 6.257 1.753 9.39.393 1.373.836 2.733 1.383 4.051.562 1.35 1.577 2.716 1.539 4.228 8.818-1.881 17.732-3.091 26.671-4.184 3.356-.123 9.025-1.923 11.803-.212 3.292 2.046 1.816 5.832 3.57 7.239 2.68 1.307 6.141.321 9.041.242 12.634-1.072 25.385-1.782 37.998-2.839 7.575-1.388 2.619-3.709 5.881-5.567-.012-11.633-14.013-10.406-22.226-11.434a127.6 127.6 0 0 1-7.515 2.729c-1.25.41-2.113-1.261-1.248-2.14l1.76-1.786a54.95 54.95 0 0 1-3.574-.926c-1.662.754-3.409 1.315-5.037 2.148l-.303.159c-1.111.598-2.419-.62-1.755-1.752.515-.877.923-1.775 1.24-2.712a35.629 35.629 0 0 1-4.499-2.419l-.286-.184-4.664 2.601c-.913.509-2.286-.35-1.884-1.445.478-1.512 1.891-2.153 2.965-3.166-.12-.259-.191-.603-.133-.866-2.099-1.834-3.93-4.175-6.592-5.249Zm62.146 35.056-.149.023c.01.018.018.033.028.048l.065-.007-.062.01a.284.284 0 0 0 .169.125 2.182 2.182 0 0 1-.038-.132l-.013-.067ZM227.078 434.343l.375 3.501c.996 9.329 1.943 18.614 2.685 27.954.098.092.179.199.246.313l2.206.399c3.852.702 7.044 1.43 10.536 4.072 11.637 6.216 15.537 19.906 19.105 31.65 7.823 25.751 10.515 52.946 21.091 77.849.31.719.292 1.362.077 1.882a139.872 139.872 0 0 1 5.524-1.47c-2.488-4.785-3.562-11.95-2.869-17.3l-.271-.008c-.864-.022-1.907-.025-2.598-.558-1.362.382-2.516-.915-2.645-2.146l-.006-.059c-3.769-42.187-6.504-84.804-16.71-126.046-1.327 1.346-3.725 1.037-5.509 1.115l-.095.004c-1.608.077-3.219.138-4.83.19l-.698.009c-8.509.122-17.273.736-25.614-1.351Zm-62.588 33.842c5.878 36.918.679 81.235-14.619 112.362 3.699-.076 7.298-1.068 10.99-1.055 6.569.107 9.775-1.233 12.417-7.482 6.345-14.449 12.683-33.004 30.579-35.748l.838-.08c2.499-.234 6.701-.489 6.703 2.47a2.83 2.83 0 0 1 1.026.087c.053-.692.107-1.383.164-2.072l.047-1.362c.156-4.303.617-10.258 5.985-10.209.072-.474.228-.945.418-1.411-5.405-2.664-5.215-16.345-5.822-21.856-.494-7.84-.455-15.709-.277-23.56.021-.779.169-1.816-.133-2.451-2.787-1.823-3.398-4.201-3.491-7.456-14.922.376-29.891-.025-44.825-.177Zm64.876 14.007c1.304 2.938 1.393 6.329 1.77 9.495.313 3.766.533 7.533.754 11.305l.048.864c.076 1.316.185 2.595.665 3.855l.111.294c.565 1.513.997 2.918.84 4.587-.364 3.902-.979 7.851-1.692 11.702-.997 3.265-4.711 1.184-6.823.423l.023.217c.141 1.41.136 2.82-.651 3.908 5.832-.188 6.248 4.001 5.586 8.678l-.039.616c-.406 6.588-.541 13.493 1.255 19.864 3.031 1.306 5.231 3.761 7.34 6.192 1.242 1.442 2.793 2.973 3.771 4.676 8.227-.147 16.071 2.774 22.634 8.286l-.775-3.287c-5.076-21.548-10.046-43.151-16.842-64.238-3.44-9.976-6.123-24.537-17.975-27.437Zm-126.401-16.883c.018 9.38.085 18.757.144 28.137 2.819.397 5.54 1.211 8.164 2.384 1.664.743.9 2.996-.459 3.51-2.478.938-5.068 1.478-7.656 2.018-.267 20.387 1.086 40.874-.936 61.187 6.081.91 6.524 7.758 5.373 12.568 6.734.593 13.522 2.292 20.274 1.103 1.99-.108 3.257-2.349 5.079-1.93 15.908-27.874 21.098-71.302 14.66-105.73-14.91-.24-29.875-1.158-44.643-3.247Zm-4.079 36.948c-1.41.297-2.818.597-4.229.896-.209 20.148.641 40.384-.951 60.483.596-.031.472.362-.036.397-.031.343-.064.686-.098 1.029a.793.793 0 0 1-1.585 0c-.02-.207-.038-.412-.056-.619-2.688.588-5.417 1.006-8.126 1.459-3.99.984-13.58.344-14.298 5.531l3.103.27c10.47.914 19.67 1.774 30.052 2.87.518-3.186 2.986-7.891-.905-9.913a1.033 1.033 0 0 1-1.737-.717c-2.146-20.477-.835-41.13-1.133-61.686Zm308.537 41.498c-12.403-4.953-18.852.821-28.788 7.162-5.133 2.899-12.134 4.158-17.3.789-2.372.138-3.481-2.466-3.285-4.543-.003-.143-.006-.284-.006-.425-2.889 1.738-1.1 6.561-1.715 9.408 5.896 1.848 12.032 2.301 18.156 2.743 7.935.176 17.504 4.072 18.436 12.925l.025.27.608-.018c0-.895.566-1.818 1.69-1.908l.072-.004c16.394-1.032 32.959-.978 49.27-2.641 1.96-.556 2.66-1.846 2.134-3.762-1.264-4.611-7.738-4.837-11.552-5.91-4.595-1.292-8.719-3.557-12.764-5.987a65.806 65.806 0 0 1-5.225 1.23c-.853.165-1.97-.587-1.578-1.575l.285-.721c.288-.719.64-1.536 1.087-2.23a91.636 91.636 0 0 0-3.996-2.267 31.945 31.945 0 0 0-6.518 3.181c-1.245.793-2.517-.953-1.587-1.976l.033-.035a12.648 12.648 0 0 0 2.518-3.706Zm-82.362 1.516c-11.055 5.395-22.782 9.419-34.09 14.296l.229.085c.396.15.847.351.993.709 4.253 3.364 10.233 4.735 15.281 2.346 7.282-3.901 10.895-12.304 18.344-16.1a6.751 6.751 0 0 1-.757-1.336Zm-105.093-14.89c-.364-.062-1.438-.533-1.726-.408-.733 1.828-.755 3.99-.957 5.941-.682 7.61-2.083 15.136-2.859 22.721 3.84-1.054 7.789-1.681 11.742-1.767-.322-2.352-.582-4.69-.719-7.057-.253-4.605-.067-9.247.624-13.81l.047-.247c.748-3.969.154-4.147-3.592-5.545-.805.274-1.703.32-2.56.172Zm84.388-179.511c-6.401-6.106-15.944-5.364-24.157-5.397-17.513-.004-34.987 1.587-52.258 4.409-.489.859-1.863 1.053-2.527.415a506.911 506.911 0 0 0-14.224 2.594c1.308 8.261 2.352 16.567 3.519 24.849l.075.51c.514 3.594.767 7.617-1.681 10.583-.069 9.175-.419 18.384-.454 27.573 1.348-1.281 3.522-1.135 5.256-1.452 3.55-.815 6.931-1.403 10.531-1.603 3.624-.553 7.248-1.106 10.874-1.657a1.328 1.328 0 0 1 1.288.515c4.64-.546 9.26-1.478 13.918-1.78l-.276-.826c-1.377-4.155-2.635-8.665-.655-12.795.469-.968 2.005-.911 2.491 0 1.707 3.196 1.78 6.84 2.435 10.334.377 2.004 1.155 4.135 1.518 6.248 1.924 3.178 2.885 6.905 4.137 10.388 13.687 43.134 15.334 88.804 20.488 133.459 7.994-3.313 16.089-6.417 24.112-9.656 5.764-2.815 18.842-5.02 18.198-13.147a12.4 12.4 0 0 0-.085-1.985c.157-.261.377-.478.635-.644-2.647-10.399-3.768-21.136-4.445-31.822-1.76-29.373-2.629-58.8-3.526-88.21l-.042-1.245c-.678-20.399-.896-43.595-15.145-59.658Zm21.502 117.85c1.049 19.598.585 39.472 5.275 58.66l.144.581c.453 1.841 1.658 4.434.893 6.359-.028 2.353.802 6.02-1.223 7.683-.866.631-1.98 1.022-3.024 1.42.506.589 1.215.995 1.915 1.236l.117-.056c1.942-.909 5.353-1.527 5.841 1.183 3.673.289 7.225 3.8 10.187 5.677a39.767 39.767 0 0 0 4.699 2.545c.512-3.893 2.793-8.826 7.361-8.701 0-2.355-.401-4.679-.754-7-2.124.339-4.245.48-6.393.388-1.425 1.027-2.837-.104-3.022-1.643-6.583-22.867-13.939-45.828-22.016-68.332Zm59.71 59.546c-8.768 2.747-18.393 2.807-26.81 6.593 2.526 3.619 3.499 7.992 4.116 12.289.577.45.964 1.163.995 1.933.016.271-.009.543-.09.799 9.367 1.958 16.237-5.971 23.771-9.979-1.027-3.748-1.52-7.76-1.982-11.635Zm-22.668 19.23.003.054c-.013.435.328.297-.003-.054Zm-6.065-11.825c-.144.063-.285.132-.429.196.148-.022.296-.043.444-.067l-.015-.129Zm-21.784-189.855c-10.222-6.904-30.611-3.679-42.725-2.866 23.932 1.811 27.893 34.635 29.793 53.526 1.529 20.293 2.097 40.658 3.214 60.979 9.531 25.419 17.265 51.49 25.414 77.376 6.62-3.705 13.858-6.061 21.352-7.283l1.081-.156c6.278-.918 12.659-2.064 17.83-5.976-18.514-45.145-26.263-93.88-40.339-140.466-4.133-11.657-5.498-26.951-15.62-35.134Zm54.695 180.59c-.352.209-.714.405-1.083.588.195-.044.401-.051.61-.021.16-.183.332-.392.473-.567Zm-168.095-97.502c-1.69-2.826-5.426-5.387-8.738-4.16 4.99 3.043 3.906 11.839 4.273 16.984l-.008.29c-.122 4.854.29 15.1-2.383 18.561.187 2.233.19 4.545.418 6.792.069.822-.092 2.358.392 3.085 5.352 2.994 2.756 10.175 3.076 15.159-.243 9.542.425 19.066.703 28.598-.018 2.464-.258 5.092.564 7.451 1.051-2.243 4.047-2.092 4.698.179.525-.688 1.58-.742 2.483-.619.318-3.024.808-6.046.913-9.073.051-1.505-.836-2.745-1.162-4.184-.655-5.46.09-11.04.157-16.532l.016-.163c.21-2.271.374-7.892 1.658-9.27-8.31-1.491-10.939-11.94-2.829-15.799-.111-.51-.004-1.048.347-1.434-.691-8.267-1.584-16.523-2.368-24.785-.336-3.721-.323-7.741-2.21-11.08ZM70.939 499.34c.628-.849-.727-1.766-1.279-.865-.57.962-.9 2.139-.668 3.247.128.614 1.135.785 1.406.183.233-.494.315-1.024.431-1.553.31-.24.314-.693.11-1.012Zm4.732-4.99c.025.146.048.294.069.443.23-.085.47-.154.715-.215a33.12 33.12 0 0 1-.784-.228Zm20.154-60.847c-.631.394-1.378.643-2.16.758 1.427 19.528.619 39.193.962 58.77 1.407.323 2.874.053 4.301.164.35-17.086-.304-34.159.793-51.232-.958-2.443-1.57-5.409-.86-8.012a29.817 29.817 0 0 1-3.036-.448Zm107.899 27.082c-12.654.495-25.394.276-38.065.12-.8-.023-1.623-.028-2.457-.033.326 1.708.631 3.428.913 5.157 14.999-.173 30.031-.526 45.02-.203l-.064-.7a35.277 35.277 0 0 1-.138-2.147c-1.863-.141-3.683-.938-5.209-2.194Zm-67.404-28.557c-.921 1.187-2.939.425-4.276.538-.341.546-.925.947-1.751.991-6.358.338-12.729.404-19.098.497-1.858 2.151-5.159.91-7.551 1.782-.293 1.487-.308 3.031-.646 4.525a11.004 11.004 0 0 1-.595 1.751c.518 5.651.557 11.38.557 17.046 3.147-.917 6.551-.761 9.802-.97 7.051-.18 14.103-.109 21.155-.123 3.115-.056 6.638.132 9.677.092.778-.281 1.879.166 2.039 1.063.583 2.287-2.011 2.458-3.56 2.343-1.87-.041-3.74-.082-5.607-.121-7.648-.189-15.298-.329-22.939-.673-3.505-.288-7.186-.195-10.567-1.244l.001 4.267.004 1.143c14.654-.057 29.316.167 43.973.034-2.247-11.401-5.925-23.03-10.618-32.941Zm189.256 30.569c-.059.75.208 1.38.56 2.026-.188-.675-.377-1.349-.56-2.026Zm-169.909-29.585c2.811 7.738 5.111 15.906 6.884 24.39 12.616-.274 25.21-.139 37.825-.118-4.648-5.454-9.58-3.956-11.895-7.423-1.677-2.688-.277-11.494.161-14.847-9.822-.416-19.689-.465-29.467-1.578-1.108-.145-2.313-.245-3.508-.424Zm-69.456-2.948a4.823 4.823 0 0 1-.756.518c.675 1.769-.017 3.552.58 5.355.024 2.129-.084 4.272.023 6.296-.009 1.927 1.19 3.135 2.918 3.259.626.036 1.455-.11 2.309.144.17-3.771.022-7.603.64-11.331a7.302 7.302 0 0 1-1.157-.198c-.057-1.775-1.793-3.485-3.575-2.578a18.46 18.46 0 0 1-.981-1.465Zm114.861-1.34a5.937 5.937 0 0 0-1.56.388c.118 4.814 7.078 1.433 8.03 7.34.158 1.392-.014 2.791-.06 4.186-.023.713-.584 1.833.194 2.25.401.581 1.498.467 1.401-.368a9.93 9.93 0 0 1-.041-.468 5.785 5.785 0 0 0 .663-1.899c.413-.213.289-.761.106-1.146-.107-.837.242-2.311-.674-2.756-.094-5.555-2.159-6.437-7.324-6.889-.351-.036-.573.137-.673.377-.136-.297-.132-.653-.062-1.015Zm-4.58-73.098c-3.696 1.175-7.824 1.42-11.662 2.153-24.788 3.466-48.604 13.677-73.882 13.403a11.265 11.265 0 0 1-2.434-.376c.003.394.057.798.142 1.19.474.405.769 1.042.861 1.688 18.973 9.606 33.296 29.127 42.279 49.677 11.13-1.514 22.25-3.23 33.404-4.62l2.024-.262 4.049-.519c1.972-.249 4.17-.874 6.13-.456.894-8.935.896-17.648 1.57-26.639-1.97-1.574-1.506-4.936-1.585-7.259-.45-9.322-.489-18.66-.896-27.98Zm12.792 35.741c-.671.177-1.364.241-2.013.146-1.732.845-4.296.408-6.214.21.223 2.075.415 4.154.497 6.238.323 8.128.195 16.424-.536 24.547 2.628.184 5.256.506 7.879.719.025-10.6.52-21.246.387-31.86Zm-100.131 6.604c2.091 8.701 11.564 22.013 21.086 22.808-5.797-9.367-12.46-16.749-19.824-21.945-.42-.297-.838-.581-1.262-.863Zm85.047-65.686c-.303.008-.605.011-.908.005 1.822 2.645 1.498 6.765-.705 9.093 7.689 4.759 7.447 15.403 7.705 23.389.306 7.729.717 15.44 1.041 23.159 0-.141.462.056.626.085 1.04.135 2.094.181 3.144.135 1.587-.631 3.679-.644 4.773-2.174 1.298-1.736 1.001-4.332.777-6.342-.541-4.866-1.272-9.713-1.887-14.569-1.695-10.373-1.482-30.552-14.566-32.781Zm-2.864 10.215c-6.175 3.87-14.298 2.363-21.273 2.791-5.096.074-10.195.097-15.293.079-17.173-.097-34.336-.781-51.494-1.487l.038.712c.316 5.695.9 11.397 2.56 16.869.944 3.749 2.353 5.138 6.302 4.807 21.101-.313 41.121-7.829 61.688-11.606a470.603 470.603 0 0 1 22.206-3.134l-.081-.459c-.591-3.277-1.546-6.98-4.653-8.572Zm4.488-165.383c.293.549.461 1.043.331 1.554 24.715 52.861 18.189 112.987 31.237 168.737.256.152.401.39.536.641a259.307 259.307 0 0 1 12.734-2.213c-.488-1.256.264-2.394 1.124-3.211.012-.125.184-.52.195-.52-1.608-19.773-3.949-39.544-5.964-59.297-1.258-13.766-3.553-27.659-2.931-41.496.023-.161.233-.112.28 0 3.326 11.958 5.251 30.107 8.576 54.243 24.007 28.129 38.151 33.05 61.238.451l1.185-1.741c10.79-15.877 21.318-32.059 29.507-49.447-10.244-.328-15.774-11.083-20.151-18.972-.741-.399-1.234-1.003-1.639-1.815-3.469 4.32-6.214 9.649-9.726 14.037-8.719 11.448-28.747 25.642-29.185 26.097l-.084.076c-1.317 1.203-5.282 5.75-6.508 5.628-5.341 4.946-17.217-18.093-18.646-22.434-3.483-8.455-6.291-11.054-9.313-19.678l-.52-1.554c-4.162-12.461-8.345-25.588-18.762-34.298l-.408-.434c-6.667-7.05-13.151-12.55-23.106-14.354Zm127.375 156.085c-2.96.182-5.922.358-8.882.535l-2.739.162c-21.605 1.293-43.257 2.89-64.905 1.948.203 3.042 1.267 6.193.095 9.15 14.936-1.746 29.97-2.82 44.971-2.098 8.914-4.208 19.734-5.528 29.757-5.582.169-1.399.75-2.98 1.703-4.115Zm-151.938-23.893c-14.538-6.487-28.757.116-33.873 15.804.358.295.605.813.667 1.337 1.346 1.795 3.815 1.74 5.837 1.994a33.008 33.008 0 0 1 11.608 3.834c1.986 1.083 3.692 2.65 5.741 3.596l1.103 1.035c1.841 1.721 3.728 3.377 6.167 4.286 2.526.132-.737-4.787-1.268-5.743l-.198-.318c-1.064-1.687-2.432-3.609-.975-5.526 2.653 1.272 4.791 3.105 6.926 5.152l.386.373c2.076 2.03 4.465 4.578 7.448 4.91.502.056.868-.536.742-.973-1.339-4.435-5.253-7.535-8.896-10.198.031-1.264.91-2.231 2.061-2.506 5.113 2.943 8.683 7.604 13.682 10.622.539.319 1.105-.103 1.158-.664-.031-3.925-4.035-6.933-6.795-9.258a43.073 43.073 0 0 0-1.759-1.287c.136-.786.855-1.475 1.755-1.602 1.64.466 11.471 8.095 11.499 4.569l-.019-.097c-.262-1.24-1.687-3.931-3.063-3.599-5.096-6.289-12.413-12.828-19.934-15.741ZM133.034 165.13c-5.137 2.948-10.066 6.139-15.209 9.058-6.556 3.753-13.599 6.667-19.899 10.869-19.184 14.128-24.744 43.907-31.721 65.625l-.988 4.216C61.218 272 55.214 299.242 62.46 313.18l.05.11c.905 1.918 5.207 9.694 7.423 11.075 6.494 4.049 20.075 5.425 31.878 4.632 11.238-.521 22.301-2.67 33.268-4.929.251-3.775 2.099-6.929 4.044-10.004l.201-.318.226-.333c2.75-4.038 5.853-7.311 10.397-9.093-15.182-4.541-40.177 1.304-57.102-10.585-1.351-.95-.172-2.961 1.295-2.212a41.04 41.04 0 0 0 2.685 1.248c-.8-2.88 1.284-4.594 2.528-7.094l.05-.101c10.687-21.55 19.096-45.773 26.551-67.729-2.17 15.36-5.67 30.573-10.634 45.267 4.549 3.49 8.346 7.889 12.447 11.879 4.393 4.657 9.723 8.616 13.075 14.148.731 1.288-.708 2.589-1.957 1.954-2.944-1.496-5.388-3.867-7.648-6.225l-.918-1c-5.608-6.119-11.138-12.418-15.417-19.55-2.855 8.264-6.377 15.115-10.144 22.907l-.482 1c-.834 1.723-1.611 3.646-2.983 4.918.908 1.818 3.231 2.24 5.022 2.771 14.554 4.081 30.008.671 44.621 4.387l.964.249c.962.25 1.936.553 2.509 1.432 12.746.465 25.158 5.682 35.093 13.724l.256.203c4.186 3.349 8.474 7.768 9.226 13.309.141 1.045-.246 2.523-1.495 2.758 2.418.3 4.601 1.544 6.394 3.265-17.096-59.269-67.178-106.461-70.848-170.113Zm54.126 168.491c.237.358.452.733.609 1.123-.077-.053-.151-.111-.227-.165.021-.194-.123-.41-.261-.566l.001-.002c-.066-.078-.128-.161-.192-.241a.777.777 0 0 0 .07-.149Zm55.819-29.278c.664 5.634 1.325 11.266 1.981 16.901 4.674-.617 9.383-.988 14.089-1.334l-.261-.163c-2.379-1.486-4.574-3.224-6.632-5.126a74.8 74.8 0 0 1-6.405-6.702 56.321 56.321 0 0 1-2.772-3.576ZM131.58 243.988c.725 6.454 4.751 11.926 8.491 17.007.98 1.33-1.247 2.606-2.214 1.292l-.39-.53c-3.931-5.366-7.691-11.001-8.452-17.769-.184-1.638 2.383-1.62 2.565 0Zm240.643-64.144c-11.595 7.273-23.727 13.649-35.587 20.477-1.451.823-2.921-.529-2.649-2.033.605-3.335 1.206-6.67 1.796-10.006l.455-2.586c.172-.933.881-4.301.204-5.565-2.94 4.972-5.979 9.89-9.033 14.795l-3.332 5.35c-3.568 5.73-7.562 11.545-8.98 18.219.866.821 1.312 2.012 1.418 3.183.997.399 1.679 1.508 1.406 2.68 4.271 5.103 7.187 12.436 14.019 14.581 7.749-11.146 20.485-17.668 33.802-19.289l2.363-.414c5.774-1.019 11.791-2.264 16.391-5.852-4.566.22-9.131.43-13.699.627-1.529.067-1.852-2.341-.361-2.661 6.634-1.426 13.375-4.46 18.679-8.947-8.851 3.119-18.138 4.97-27.5 5.698-1.926.022-2.261-2.758-.446-3.301 8.25-3.395 15.647-8.796 21.32-15.651l.18-.22-11.887 6.261c-4.958 2.612-10.262 5.838-16.051 5.831-1.682-.003-2.057-2.105-.808-2.978l1.629-1.21c5.489-4.087 15.886-12.052 16.671-16.989Z" clip-rule="evenodd"></path><path fill="#fff" fill-rule="evenodd" d="M144.997 61.064c38.008-1.866 63.796 28.065 64.905 40 .77 8.286.248 19.335.248 26.739 0 3.779 1.909 15.265-.248 20.773-4.801 12.259-10.225 21.862-25.255 21.862s-37.942-7.779-45.81-17.811c-1.436-1.832-19.287-15.241-19.287-25.781 0-22.488-1.673-64.45 25.447-65.782Z" clip-rule="evenodd"></path><path fill="#000" fill-rule="evenodd" d="M119.068 36.777c2.166-.676 3.549.297 4.535 1.805.217-.042.428-.04.662.017.058.014.198.067.304.108.082.035.156.076.227.12l.043-.022c.162-.177.333-.339.517-.469.415-.292.841-.377 1.246-.317l.188-.07c1.603-.557 3.342-.298 4.429 1.081.21.267.38.563.525.876.326.107.632.261.896.45.185-.086.38-.16.59-.213 1.183-.303 2.425-.017 3.389.707.47.352.815.794 1.077 1.297.298.07.593.196.869.365.237-.118.478-.229.725-.305a7.707 7.707 0 0 1 2.811-.309c2.026.15 3.984 2.46 2.631 4.444l-.042.06a7.16 7.16 0 0 0-.46.737c.485.21.952.492 1.383.846 2.11 1.726 2.3 4.388 1.905 6.899l-.017.104h.005c1.121.107 2.089 1.276 1.427 2.375l-.033.052c-.896 1.383-1.664 2.91-2.521 4.366a39.88 39.88 0 0 0-6.807 3.176c-1.34 1.173-2.616 2.412-3.739 3.791a21.635 21.635 0 0 0-1.548 2.173c.378.182.846.173 1.241-.193 3.516-3.253 7.763-5.536 12.285-7.066a1.1 1.1 0 0 0 .659-.564 49.585 49.585 0 0 1 6.114-1.327c.569-.541 1.165-1.059 1.731-1.598.723-.687 1.628-.677 2.305-.245.336-.153.68-.288 1.028-.41l.217-.073c.09-.03.176-.064.265-.091 2.421-.74 4.635-.465 7.017.142l.305.08c1.11.294 1.808.247 2.883-.024l.121-.031c1.143-.297 2.364-.518 3.532-.205 1.221.328 2.032 1.057 2.864 1.938l.083.089c.388.415.613.46 1.121.45l.545-.016c2.054-.056 4.066.03 5.605 1.617.569.587 1.18 1.417 1.546 2.176l.053.113.046.095c.221-.036.565-.175.728-.207 2.239-.434 4.108.235 5.546 1.997.314.385.79 1.142 1.119 1.559.115.097.224.202.327.312.54.344 1.305.322 1.91.443 1.65.328 3.413.955 4.252 2.522.351.655.48 1.37.628 2.086.555.364.99.888 1.327 1.456.41.689.585 1.533 1.057 2.183.343.473.868.726 1.366 1.015l.191.111c1.478.88 2.635 1.855 3.122 3.577l.042.153c.079.264.356 1.016.115.903.208.115.561.155.75.218 1.026.338 1.917.886 2.463 1.847.416.732.491 1.494.61 2.3l.051.326.044.26.016.087.003.002c.186.08.369.167.548.26.85.5 1.431 1.367 1.431 2.371 0 .487-.153.867-.375 1.206.18.271.319.56.424.882.206.63.22 1.318.151 1.969-.083.781-.284 1.493-.521 2.239-.091.288-.127.69-.265.965.253.322.404.716.357 1.105-.066.556-.321 1.205-.825 1.517-.246 1.215-.777 2.456-1.299 3.448-.06.116-.133.218-.213.303.072 3.964-.219 7.956-.239 11.915-.022 4.309.068 8.621.219 12.925.253 7.134 1.158 14.511-.951 21.467-1.725 5.694-5.181 10.582-9.815 14.288a28.971 28.971 0 0 1-16.537 6.328c-3.089.172-6.231-.178-9.22-.977l-.32-.087c-2.892-.793-6.241-2.005-8.369-4.127-1.124-1.122.012-3.498 1.66-2.845 1.632.649 3.097 1.608 4.717 2.284a26.831 26.831 0 0 0 4.486 1.407c3.066.689 6.319.839 9.436.411 11.254-1.538 20.023-10.87 21.753-21.935.479-3.065.47-6.18.438-9.276l-.036-3.393c-.027-2.838-.037-5.678.067-8.515.133-3.651.391-7.299.737-10.935l.18-1.892c.214-2.213.455-4.444.871-6.627-.34.018-3.025-4.568-4.515-7.131-.544-.43-1.003-.966-1.181-1.658a2.509 2.509 0 0 1-.067-.437 23.864 23.864 0 0 0-1.025-1.481l-.079-.035a2.283 2.283 0 0 1-.135-.067 5.13 5.13 0 0 1-2.267-2.72 26.53 26.53 0 0 0-2.015-1.788c-.07-.055-.141-.106-.211-.16-.896-.335-1.683-.838-2.257-1.563-.24-.148-.481-.294-.724-.436-.731-.007-1.469-.176-2.188-.471-1.314-.54-2.363-1.604-3.683-2.098-1.396-.521-2.867.664-4.35.45a3.844 3.844 0 0 1-1.103-.336c-.835.883-1.722 1.716-2.699 2.445-1.418 1.058-2.869 1.542-4.513 2.02-.815.772-1.727 1.52-2.827 1.63-2.546 2.032-5.269 3.747-8.134 5.338a2.816 2.816 0 0 1-1.354.375c-.899.563-1.88.996-2.916 1.296a2.47 2.47 0 0 1-.989.074l-.899.731c-.626.509-1.294.752-1.932.768-.389.297-.792.578-1.206.849-.444.29-1.02.41-1.599.375-.884.864-2.03.954-2.99.557a4.676 4.676 0 0 1-1.064.469 4.748 4.748 0 0 1-3.934 1.494c-1.096.671-2.373 1.02-3.62.941-.19.955-.348 1.913-.481 2.874l-.014.705a11.06 11.06 0 0 0 0 .261l.001.023c.122 3.088.189 6.176.309 9.264l.011.244c.138 2.697.802 7.615-3.168 7.508-1.48-.04-2.948-1.128-4.1-2.022l-.163-.127a74.105 74.105 0 0 1-.27-.21c-.861-.112-1.71-.321-2.579-.353a12.668 12.668 0 0 0-3.248.316c-1.845.428-3.631 1.267-4.834 2.787a5.369 5.369 0 0 0-.296.413 2.207 2.207 0 0 1-.424.784c-1.139 2.556-.481 5.934.777 8.273 1.5 2.785 3.873 4.711 6.857 5.681l.149.048c2.039.636 2.819 1.868 3.927 3.581 1.038 1.607 2.23 3.105 3.508 4.527 2.475 2.752 5.949 5.023 7.388 8.506.291.701-.542 1.362-1.186 1.182-2.525-.708-4.296-2.504-6.131-4.289a55.94 55.94 0 0 1-3.639-3.874c-.24.111-.505.186-.78.219-1.216.149-2.471.087-3.535-.567a1.828 1.828 0 0 1-1.382-.473 6.148 6.148 0 0 1-.903-1.033c-.385.034-.764.044-1.125-.016a1.441 1.441 0 0 1-.498-.137 2.2 2.2 0 0 1-.81-.556c-.507-.544-.702-1.312-.608-2.041a2.68 2.68 0 0 1-1.825-1.378 5.694 5.694 0 0 1-1.534-1.263 5.5 5.5 0 0 1-1.084-1.967 4.7 4.7 0 0 1-.655-.368c-1.506-1.018-2.368-2.928-1.777-4.694l.02-.055c.03-.08.085-.215.151-.368-.009-.125-.019-.249-.026-.374l-.021-.376-.302-.128c-1.504-.597-2.521-1.404-2.702-3.094-.038-.35.098-.706.313-1.004l-.001-.094a3.748 3.748 0 0 1-.273-.154c-.82-.524-1.324-1.461-1.268-2.431.052-.883.542-1.588 1.093-2.239l.158-.183.043-.049-.364-.115a3.494 3.494 0 0 1-.609-.237c-.603-.337-1.114-.793-1.429-1.373-.046-.071-.093-.142-.135-.219-.407-.741-.46-1.691-.197-2.487.031-.094.071-.182.112-.27-1.108-.39-1.962-1.197-2.065-2.683a3 3 0 0 1 .367-1.665 3.47 3.47 0 0 1-.035-1.028c-.39-.368-.693-.811-.828-1.352-.256-1.021.213-1.993.909-2.884-.258-.705-.271-1.5.023-2.209a3.786 3.786 0 0 1-.181-1.113 3.62 3.62 0 0 1 .679-2.166c-.596-.728-.879-1.695-.527-2.601.25-.644.537-1.234.867-1.779a3.611 3.611 0 0 1-.274-1.401c0-.937.351-1.679.889-2.286-.233-1.109.241-2.46 1.276-2.948.39-.184.912-.376 1.487-.526a62.623 62.623 0 0 1 1.885-5.115 8.1 8.1 0 0 1-.771.598c-.844 1.07-1.962 1.999-2.902 2.554-1.864 1.1-3.995.448-4.916-1.394-.864.645-1.902 1.026-3.009.896-1.255-.148-2.403-.96-2.716-2.226a2.565 2.565 0 0 1-.076-.581c-.72.512-1.473.983-2.299 1.252-1.053.344-2.127-.48-2.266-1.507a1.738 1.738 0 0 1 .184-1.07l-.103-.04a2.326 2.326 0 0 1-1.235-1.3c-1.195.462-2.563-.08-2.943-1.392a9.166 9.166 0 0 1-.125-4.66c-1.266-.918-2.091-2.463-2.232-4.078-.102-1.16.175-2.23.663-3.22-1.198-.447-1.61-2.014-1.04-3.144-.756-.432-1.25-1.348-1.26-2.24-.338-.51-.446-1.169-.166-1.906.37-.971 1.122-1.784 1.983-2.42a7.82 7.82 0 0 1-.828-2.102 1.944 1.944 0 0 1-1.407-1.65c-.147-1.086.569-2.006 1.532-2.249.106-.33.237-.653.398-.964-.477-1.127-.406-2.551.208-3.783.544-1.09 1.43-1.756 2.495-2.216-.27-.927.088-1.851.99-2.54a13.233 13.233 0 0 1 3.581-1.939c-.112-1.508.519-3.053 2.011-3.578.399-.14.815-.193 1.237-.191.306-.665.817-1.206 1.485-1.685 1.009-.724 2.896-.282 3.456.854l.028.058c.028.065.059.123.088.186a2.954 2.954 0 0 1 .801-1.5c1.06-1.067 2.179-1.087 3.256-.63.198-.49.437-.955.728-1.38 1.056-1.544 2.8-1.74 4.078-.904.512-.45 1.083-.797 1.715-.994Zm7.55 92.815c2.126-.831 4.706-.585 6.808.213l.154.06c1.856.733 4.871 2.363 5.234 4.448.189 1.079-.839 2.013-1.883 1.445-.908-.494-1.417-1.488-2.139-2.209-.714-.714-1.514-1.287-2.387-1.791-1.82-1.049-3.734-1.457-5.787-1.76-.231-.032-.168-.34 0-.406Z" clip-rule="evenodd"></path><path fill="#000" fill-rule="evenodd" d="M184.141 151.975a10.215 10.215 0 0 1-4.29-3.296c-.382-.508-.481-1.046-.401-1.537.09-.552.417-1.053.864-1.389.448-.337 1.008-.503 1.549-.418.471.073.939.331 1.31.864l.077.107a6.764 6.764 0 0 0 2.476 2.075c.936.45 1.982.66 3.065.538 2.062-.233 3.483-1.346 4.994-2.859.188-.191.375-.388.563-.588a.887.887 0 0 1 .467-.359 1.03 1.03 0 0 1 1.152.393c.115.17.181.38.16.621-.139 1.567-.959 2.966-2.125 4.064-1.294 1.22-3.01 2.064-4.626 2.36-1.78.326-3.593.093-5.235-.576Zm6.075-24.179c1.893 1.149 4.779 3.83 2.742 6.679-2.398 2.512-5.851-.368-7.552-1.671-1.577-1.01-3.35 1.587-1.886 2.766 12.293 9.088 17.282-7.473 7.654-9.125-1.061-.182-1.454.996-.958 1.351Zm-22.03-10.572c.21-2.593 4.165-3.182 4.558-.616.353 2.299-.062 4.41-1.099 6.48-.991 1.977-3.481 1.055-3.669-.746-.253-2.413.08-3.505.21-5.118Zm30.107-1.148c.552-.721 1.348-1.213 2.302-.935 2.98.869 2.102 5.094 1.055 7.151-.569 1.117-2.407 1.4-3.238.417-1.354-1.604-2.002-4.806-.281-6.386.047-.081.099-.164.162-.247Zm-26.69-10.199.471-.082c1.456-.252 3.267-.493 4.297.676.546.62.735 1.772 0 2.365-1.292 1.045-2.72.64-4.268.728a16.987 16.987 0 0 0-3.731.635c-2.697.77-4.893 2.174-7.196 3.717-.302.202-.611-.184-.467-.466 1.33-2.6 3.906-4.735 6.486-6.037 1.377-.695 2.884-1.272 4.408-1.536Zm23.974-1.165.36.074c3.921.818 9.016 2.453 10.873 6.299.07.544-.004.661-.065.737l-.02.025c-.051.065-.091.155-.327.229-.065-.016-.131-.032-.198-.05-.851-.222-1.525-.529-2.177-.848l-.707-.347c-.82-.402-1.647-.789-2.524-1.075a29.86 29.86 0 0 0-5.75-1.268c-.424-.049-.832-.192-1.154-.437a1.732 1.732 0 0 1-.645-.981c-.138-.553-.098-.972.199-1.471.224-.375.543-.634.911-.783.374-.153.8-.188 1.224-.104Z" clip-rule="evenodd"></path></svg>